<svg xmlns="http://www.w3.org/2000/svg" xmlns:svg="http://www.w3.org/2000/svg" id="svg8363" width="935.748" height="367.958" version="1.1" viewBox="0 0 247.583 97.355"><metadata id="metadata8360"/><g id="layer1" transform="translate(-15.908357,-101.41056)"><g id="g12019" transform="matrix(1.4929889,0,0,1.4929889,-391.30117,469.0688)"><g id="g12" transform="matrix(0.07143438,0,0,-0.07143438,272.74786,-181.04807)"><path id="path14" d="m 2164.74,104.23 h 97.97 v 38.438 h -97.97 V 104.23" style="fill:#f68712;fill-opacity:1;fill-rule:nonzero;stroke:none"/><path id="path16" d="m 1968.04,24.3242 h 58.98 v 19.6016 h -58.98 V 24.3242" style="fill:#f68712;fill-opacity:1;fill-rule:nonzero;stroke:none"/><path id="path18" d="m 2006.81,103.477 h 39.23 v 19.503 h -39.23 v -19.503" style="fill:#f68712;fill-opacity:1;fill-rule:nonzero;stroke:none"/><path id="path20" d="m 2006.81,43.9258 h 20.03 V 122.98 h -20.03 V 43.9258" style="fill:#f68712;fill-opacity:1;fill-rule:nonzero;stroke:none"/><path id="path22" d="m 2006.95,64.2773 h 39.24 v 39.1017 h -39.24 V 64.2773" style="fill:#f68712;fill-opacity:1;fill-rule:nonzero;stroke:none"/><path id="path24" d="m 1987.7,142.512 h 39.18 v 19.707 h -39.18 v -19.707" style="fill:#f68712;fill-opacity:1;fill-rule:nonzero;stroke:none"/><path id="path26" d="m 1987.7,122.629 h 39.18 v 19.695 h -39.18 v -19.695" style="fill:#f68712;fill-opacity:1;fill-rule:nonzero;stroke:none"/><path id="path28" d="m 2188.85,553.684 -28.32,-27.196 9.05,22.676 c 4.52,9.043 7.92,26.027 7.92,33.949 0,5.66 -1.1,16.969 -2.26,20.367 h -2.25 c 0,-16.988 -10.2,-28.289 -20.39,-40.73 l -13.58,-19.258 c -1.12,1.153 -2.29,5.672 -2.29,9.059 0,15.828 11.35,30.562 11.35,47.531 0,10.211 -3.4,20.387 -10.18,36.231 l -10.2,27.187 h -1.13 v -41.883 c 0,-20.383 -2.29,-29.445 -5.66,-39.633 l -12.45,-28.3 c -1.14,7.929 -3.4,15.851 -9.07,21.507 -5.65,6.793 -12.46,26.043 -14.7,36.219 h -2.28 c -1.15,-7.93 -5.66,-30.566 -5.66,-46.406 0,-19.25 7.94,-39.629 18.11,-55.481 -33.96,5.665 -44.14,47.528 -49.8,75.844 h -2.26 c -1.14,-6.793 -7.92,-33.957 -7.92,-49.82 0,-30.52 19.33,-66.664 47.43,-80.117 l 51.88,-0.379 c 33.68,12.039 51.28,63.941 54.66,98.633" style="fill:#f68712;fill-opacity:1;fill-rule:nonzero;stroke:none"/><path id="path30" d="m 2125.54,201.359 h 19.6 v 19.598 h -19.6 v -19.598" style="fill:#f68712;fill-opacity:1;fill-rule:nonzero;stroke:none"/><path id="path32" d="m 2145.14,201.359 h 19.6 v 19.598 h -19.6 v -19.598" style="fill:#f68712;fill-opacity:1;fill-rule:nonzero;stroke:none"/><path id="path34" d="m 2086.34,436.406 h 19.6 v 19.59 h -19.6 v -19.59" style="fill:#f68712;fill-opacity:1;fill-rule:nonzero;stroke:none"/><path id="path36" d="m 2105.94,436.406 h 19.59 v 19.59 h -19.59 v -19.59" style="fill:#f68712;fill-opacity:1;fill-rule:nonzero;stroke:none"/><path id="path38" d="m 2086.34,416.816 h 19.6 v 19.59 h -19.6 v -19.59" style="fill:#f68712;fill-opacity:1;fill-rule:nonzero;stroke:none"/><path id="path40" d="m 2105.94,416.816 h 19.59 v 19.59 h -19.59 v -19.59" style="fill:#f68712;fill-opacity:1;fill-rule:nonzero;stroke:none"/><path id="path42" d="m 2086.34,397.219 h 19.6 v 19.597 h -19.6 v -19.597" style="fill:#f68712;fill-opacity:1;fill-rule:nonzero;stroke:none"/><path id="path44" d="m 2105.94,397.219 h 19.59 v 19.597 h -19.59 v -19.597" style="fill:#f68712;fill-opacity:1;fill-rule:nonzero;stroke:none"/><path id="path46" d="m 2047.15,416.816 h 19.6 v 19.59 h -19.6 v -19.59" style="fill:#f68712;fill-opacity:1;fill-rule:nonzero;stroke:none"/><path id="path48" d="m 2066.75,416.816 h 19.59 v 19.59 h -19.59 v -19.59" style="fill:#f68712;fill-opacity:1;fill-rule:nonzero;stroke:none"/><path id="path50" d="m 2047.15,397.219 h 19.6 v 19.597 h -19.6 v -19.597" style="fill:#f68712;fill-opacity:1;fill-rule:nonzero;stroke:none"/><path id="path52" d="m 2066.75,397.219 h 19.59 v 19.597 h -19.59 v -19.597" style="fill:#f68712;fill-opacity:1;fill-rule:nonzero;stroke:none"/><path id="path54" d="m 2008.34,416.816 h 19.6 v 19.59 h -19.6 v -19.59" style="fill:#f68712;fill-opacity:1;fill-rule:nonzero;stroke:none"/><path id="path56" d="m 2027.94,416.816 h 19.6 v 19.59 h -19.6 v -19.59" style="fill:#f68712;fill-opacity:1;fill-rule:nonzero;stroke:none"/><path id="path58" d="m 2008.34,397.219 h 19.6 v 19.597 h -19.6 v -19.597" style="fill:#f68712;fill-opacity:1;fill-rule:nonzero;stroke:none"/><path id="path60" d="m 2027.94,397.219 h 19.6 v 19.597 h -19.6 v -19.597" style="fill:#f68712;fill-opacity:1;fill-rule:nonzero;stroke:none"/><path id="path62" d="m 1969.53,397.219 h 19.59 v 19.597 h -19.59 v -19.597" style="fill:#f68712;fill-opacity:1;fill-rule:nonzero;stroke:none"/><path id="path64" d="m 1989.12,397.219 h 19.6 v 19.597 h -19.6 v -19.597" style="fill:#f68712;fill-opacity:1;fill-rule:nonzero;stroke:none"/><path id="path66" d="m 1969.53,377.617 h 19.59 v 19.602 h -19.59 v -19.602" style="fill:#f68712;fill-opacity:1;fill-rule:nonzero;stroke:none"/><path id="path68" d="m 1989.12,377.617 h 19.6 v 19.602 h -19.6 v -19.602" style="fill:#f68712;fill-opacity:1;fill-rule:nonzero;stroke:none"/><path id="path70" d="m 1930.34,377.617 h 19.59 v 19.602 h -19.59 v -19.602" style="fill:#f68712;fill-opacity:1;fill-rule:nonzero;stroke:none"/><path id="path72" d="m 1949.93,377.617 h 19.6 v 19.602 h -19.6 v -19.602" style="fill:#f68712;fill-opacity:1;fill-rule:nonzero;stroke:none"/><path id="path74" d="m 1930.34,357.871 h 19.59 v 19.609 h -19.59 v -19.609" style="fill:#f68712;fill-opacity:1;fill-rule:nonzero;stroke:none"/><path id="path76" d="m 1949.93,357.871 h 19.6 v 19.609 h -19.6 v -19.609" style="fill:#f68712;fill-opacity:1;fill-rule:nonzero;stroke:none"/><path id="path78" d="m 1891.14,397.219 h 19.6 v 19.597 h -19.6 v -19.597" style="fill:#f68712;fill-opacity:1;fill-rule:nonzero;stroke:none"/><path id="path80" d="m 1910.74,397.219 h 19.6 v 19.597 h -19.6 v -19.597" style="fill:#f68712;fill-opacity:1;fill-rule:nonzero;stroke:none"/><path id="path82" d="m 1891.14,377.48 h 19.6 v 19.59 h -19.6 v -19.59" style="fill:#f68712;fill-opacity:1;fill-rule:nonzero;stroke:none"/><path id="path84" d="m 1910.74,377.48 h 19.6 v 19.59 h -19.6 v -19.59" style="fill:#f68712;fill-opacity:1;fill-rule:nonzero;stroke:none"/><path id="path86" d="m 1851.95,397.219 h 19.6 v 19.597 h -19.6 v -19.597" style="fill:#f68712;fill-opacity:1;fill-rule:nonzero;stroke:none"/><path id="path88" d="m 1871.55,397.219 h 19.59 v 19.597 h -19.59 v -19.597" style="fill:#f68712;fill-opacity:1;fill-rule:nonzero;stroke:none"/><path id="path90" d="m 1812.76,416.816 h 19.6 v 19.59 h -19.6 v -19.59" style="fill:#f68712;fill-opacity:1;fill-rule:nonzero;stroke:none"/><path id="path92" d="m 1832.36,416.816 h 19.59 v 19.59 h -19.59 v -19.59" style="fill:#f68712;fill-opacity:1;fill-rule:nonzero;stroke:none"/><path id="path94" d="m 1851.95,377.48 h 19.6 v 19.59 h -19.6 v -19.59" style="fill:#f68712;fill-opacity:1;fill-rule:nonzero;stroke:none"/><path id="path96" d="m 1871.55,377.48 h 19.59 v 19.59 h -19.59 v -19.59" style="fill:#f68712;fill-opacity:1;fill-rule:nonzero;stroke:none"/><path id="path98" d="m 2164.35,416.816 h 19.6 v 19.59 h -19.6 v -19.59" style="fill:#f68712;fill-opacity:1;fill-rule:nonzero;stroke:none"/><path id="path100" d="m 2183.95,416.816 h 19.59 v 19.59 h -19.59 v -19.59" style="fill:#f68712;fill-opacity:1;fill-rule:nonzero;stroke:none"/><path id="path102" d="m 2164.35,397.219 h 19.6 v 19.597 h -19.6 v -19.597" style="fill:#f68712;fill-opacity:1;fill-rule:nonzero;stroke:none"/><path id="path104" d="m 2183.95,397.219 h 19.59 v 19.597 h -19.59 v -19.597" style="fill:#f68712;fill-opacity:1;fill-rule:nonzero;stroke:none"/><path id="path106" d="m 2203.49,416.816 h 19.59 v 19.59 h -19.59 v -19.59" style="fill:#f68712;fill-opacity:1;fill-rule:nonzero;stroke:none"/><path id="path108" d="m 2223.08,416.816 h 19.6 v 19.59 h -19.6 v -19.59" style="fill:#f68712;fill-opacity:1;fill-rule:nonzero;stroke:none"/><path id="path110" d="m 2203.49,397.219 h 19.59 v 19.597 h -19.59 v -19.597" style="fill:#f68712;fill-opacity:1;fill-rule:nonzero;stroke:none"/><path id="path112" d="m 2223.08,397.219 h 19.6 v 19.597 h -19.6 v -19.597" style="fill:#f68712;fill-opacity:1;fill-rule:nonzero;stroke:none"/><path id="path114" d="m 2242.76,397.168 h 19.6 v 19.602 h -19.6 v -19.602" style="fill:#f68712;fill-opacity:1;fill-rule:nonzero;stroke:none"/><path id="path116" d="m 2262.36,397.168 h 19.6 v 19.602 h -19.6 v -19.602" style="fill:#f68712;fill-opacity:1;fill-rule:nonzero;stroke:none"/><path id="path118" d="m 2242.76,377.578 h 19.6 v 19.59 h -19.6 v -19.59" style="fill:#f68712;fill-opacity:1;fill-rule:nonzero;stroke:none"/><path id="path120" d="m 2262.36,377.578 h 19.6 v 19.59 h -19.6 v -19.59" style="fill:#f68712;fill-opacity:1;fill-rule:nonzero;stroke:none"/><path id="path122" d="m 2282.1,377.578 h 19.6 v 19.59 h -19.6 v -19.59" style="fill:#f68712;fill-opacity:1;fill-rule:nonzero;stroke:none"/><path id="path124" d="m 2301.7,377.578 h 19.59 v 19.59 h -19.59 v -19.59" style="fill:#f68712;fill-opacity:1;fill-rule:nonzero;stroke:none"/><path id="path126" d="m 2282.1,357.988 h 19.6 v 19.59 h -19.6 v -19.59" style="fill:#f68712;fill-opacity:1;fill-rule:nonzero;stroke:none"/><path id="path128" d="m 2301.7,357.988 h 19.59 v 19.59 h -19.59 v -19.59" style="fill:#f68712;fill-opacity:1;fill-rule:nonzero;stroke:none"/><path id="path130" d="m 2282.25,338.391 h 19.59 v 19.597 h -19.59 v -19.597" style="fill:#f68712;fill-opacity:1;fill-rule:nonzero;stroke:none"/><path id="path132" d="m 2301.84,338.391 h 19.6 v 19.597 h -19.6 v -19.597" style="fill:#f68712;fill-opacity:1;fill-rule:nonzero;stroke:none"/><path id="path134" d="m 2262.65,318.789 h 19.6 v 19.602 h -19.6 v -19.602" style="fill:#f68712;fill-opacity:1;fill-rule:nonzero;stroke:none"/><path id="path136" d="m 2262.65,299.191 h 19.6 v 19.598 h -19.6 v -19.598" style="fill:#f68712;fill-opacity:1;fill-rule:nonzero;stroke:none"/><path id="path138" d="m 2243.05,299.191 h 19.6 v 19.598 h -19.6 v -19.598" style="fill:#f68712;fill-opacity:1;fill-rule:nonzero;stroke:none"/><path id="path140" d="m 2223.31,279.738 h 19.6 v 19.598 h -19.6 v -19.598" style="fill:#f68712;fill-opacity:1;fill-rule:nonzero;stroke:none"/><path id="path142" d="m 2282.25,318.789 h 19.59 v 19.602 h -19.59 v -19.602" style="fill:#f68712;fill-opacity:1;fill-rule:nonzero;stroke:none"/><path id="path144" d="m 2125.54,416.816 h 19.6 v 19.59 h -19.6 v -19.59" style="fill:#f68712;fill-opacity:1;fill-rule:nonzero;stroke:none"/><path id="path146" d="m 2145.14,416.816 h 19.6 v 19.59 h -19.6 v -19.59" style="fill:#f68712;fill-opacity:1;fill-rule:nonzero;stroke:none"/><path id="path148" d="m 2125.54,397.219 h 19.6 v 19.597 h -19.6 v -19.597" style="fill:#f68712;fill-opacity:1;fill-rule:nonzero;stroke:none"/><path id="path150" d="m 2145.14,397.219 h 19.6 v 19.597 h -19.6 v -19.597" style="fill:#f68712;fill-opacity:1;fill-rule:nonzero;stroke:none"/><path id="path152" d="m 2086.34,377.617 h 19.6 v 19.602 h -19.6 v -19.602" style="fill:#f68712;fill-opacity:1;fill-rule:nonzero;stroke:none"/><path id="path154" d="m 2105.94,377.617 h 19.59 v 19.602 h -19.59 v -19.602" style="fill:#f68712;fill-opacity:1;fill-rule:nonzero;stroke:none"/><path id="path156" d="m 2086.34,358.027 h 19.6 v 19.59 h -19.6 v -19.59" style="fill:#f68712;fill-opacity:1;fill-rule:nonzero;stroke:none"/><path id="path158" d="m 2105.94,358.027 h 19.59 v 19.59 h -19.59 v -19.59" style="fill:#f68712;fill-opacity:1;fill-rule:nonzero;stroke:none"/><path id="path160" d="m 2047.15,377.617 h 19.6 v 19.602 h -19.6 v -19.602" style="fill:#f68712;fill-opacity:1;fill-rule:nonzero;stroke:none"/><path id="path162" d="m 2066.75,377.617 h 19.59 v 19.602 h -19.59 v -19.602" style="fill:#f68712;fill-opacity:1;fill-rule:nonzero;stroke:none"/><path id="path164" d="m 2047.15,358.027 h 19.6 v 19.59 h -19.6 v -19.59" style="fill:#f68712;fill-opacity:1;fill-rule:nonzero;stroke:none"/><path id="path166" d="m 2066.75,358.027 h 19.59 v 19.59 h -19.59 v -19.59" style="fill:#f68712;fill-opacity:1;fill-rule:nonzero;stroke:none"/><path id="path168" d="m 2125.54,377.617 h 19.6 v 19.602 h -19.6 v -19.602" style="fill:#f68712;fill-opacity:1;fill-rule:nonzero;stroke:none"/><path id="path170" d="m 2145.14,377.617 h 19.6 v 19.602 h -19.6 v -19.602" style="fill:#f68712;fill-opacity:1;fill-rule:nonzero;stroke:none"/><path id="path172" d="m 2125.54,358.027 h 19.6 v 19.59 h -19.6 v -19.59" style="fill:#f68712;fill-opacity:1;fill-rule:nonzero;stroke:none"/><path id="path174" d="m 2145.14,358.027 h 19.6 v 19.59 h -19.6 v -19.59" style="fill:#f68712;fill-opacity:1;fill-rule:nonzero;stroke:none"/><path id="path176" d="m 2086.34,338.43 h 19.6 v 19.597 h -19.6 V 338.43" style="fill:#f68712;fill-opacity:1;fill-rule:nonzero;stroke:none"/><path id="path178" d="m 2105.94,338.43 h 19.59 v 19.597 h -19.59 V 338.43" style="fill:#f68712;fill-opacity:1;fill-rule:nonzero;stroke:none"/><path id="path180" d="m 2086.34,318.828 h 19.6 v 19.602 h -19.6 v -19.602" style="fill:#f68712;fill-opacity:1;fill-rule:nonzero;stroke:none"/><path id="path182" d="m 2105.94,318.828 h 19.59 v 19.602 h -19.59 v -19.602" style="fill:#f68712;fill-opacity:1;fill-rule:nonzero;stroke:none"/><path id="path184" d="m 2047.15,338.43 h 19.6 v 19.597 h -19.6 V 338.43" style="fill:#f68712;fill-opacity:1;fill-rule:nonzero;stroke:none"/><path id="path186" d="m 2066.75,338.43 h 19.59 v 19.597 h -19.59 V 338.43" style="fill:#f68712;fill-opacity:1;fill-rule:nonzero;stroke:none"/><path id="path188" d="m 2047.15,318.828 h 19.6 v 19.602 h -19.6 v -19.602" style="fill:#f68712;fill-opacity:1;fill-rule:nonzero;stroke:none"/><path id="path190" d="m 2066.75,318.828 h 19.59 v 19.602 h -19.59 v -19.602" style="fill:#f68712;fill-opacity:1;fill-rule:nonzero;stroke:none"/><path id="path192" d="m 2125.54,338.43 h 19.6 v 19.597 h -19.6 V 338.43" style="fill:#f68712;fill-opacity:1;fill-rule:nonzero;stroke:none"/><path id="path194" d="m 2145.14,338.43 h 19.6 v 19.597 h -19.6 V 338.43" style="fill:#f68712;fill-opacity:1;fill-rule:nonzero;stroke:none"/><path id="path196" d="m 2125.54,318.828 h 19.6 v 19.602 h -19.6 v -19.602" style="fill:#f68712;fill-opacity:1;fill-rule:nonzero;stroke:none"/><path id="path198" d="m 2145.14,318.828 h 19.6 v 19.602 h -19.6 v -19.602" style="fill:#f68712;fill-opacity:1;fill-rule:nonzero;stroke:none"/><path id="path200" d="m 2086.34,299.23 h 19.6 v 19.598 h -19.6 V 299.23" style="fill:#f68712;fill-opacity:1;fill-rule:nonzero;stroke:none"/><path id="path202" d="m 2105.94,299.23 h 19.59 v 19.598 h -19.59 V 299.23" style="fill:#f68712;fill-opacity:1;fill-rule:nonzero;stroke:none"/><path id="path204" d="m 2086.34,279.641 h 19.6 v 19.589 h -19.6 v -19.589" style="fill:#f68712;fill-opacity:1;fill-rule:nonzero;stroke:none"/><path id="path206" d="m 2105.94,279.641 h 19.59 v 19.589 h -19.59 v -19.589" style="fill:#f68712;fill-opacity:1;fill-rule:nonzero;stroke:none"/><path id="path208" d="m 2047.15,299.23 h 19.6 v 19.598 h -19.6 V 299.23" style="fill:#f68712;fill-opacity:1;fill-rule:nonzero;stroke:none"/><path id="path210" d="m 2066.75,299.23 h 19.59 v 19.598 h -19.59 V 299.23" style="fill:#f68712;fill-opacity:1;fill-rule:nonzero;stroke:none"/><path id="path212" d="m 2047.15,279.641 h 19.6 v 19.589 h -19.6 v -19.589" style="fill:#f68712;fill-opacity:1;fill-rule:nonzero;stroke:none"/><path id="path214" d="m 2066.75,279.641 h 19.59 v 19.589 h -19.59 v -19.589" style="fill:#f68712;fill-opacity:1;fill-rule:nonzero;stroke:none"/><path id="path216" d="m 2125.54,299.23 h 19.6 v 19.598 h -19.6 V 299.23" style="fill:#f68712;fill-opacity:1;fill-rule:nonzero;stroke:none"/><path id="path218" d="m 2145.14,299.23 h 19.6 v 19.598 h -19.6 V 299.23" style="fill:#f68712;fill-opacity:1;fill-rule:nonzero;stroke:none"/><path id="path220" d="m 2125.54,279.641 h 19.6 v 19.589 h -19.6 v -19.589" style="fill:#f68712;fill-opacity:1;fill-rule:nonzero;stroke:none"/><path id="path222" d="m 2145.14,279.641 h 19.6 v 19.589 h -19.6 v -19.589" style="fill:#f68712;fill-opacity:1;fill-rule:nonzero;stroke:none"/><path id="path224" d="m 2086.34,260.039 h 19.6 v 19.602 h -19.6 v -19.602" style="fill:#f68712;fill-opacity:1;fill-rule:nonzero;stroke:none"/><path id="path226" d="m 2105.94,260.039 h 19.59 v 19.602 h -19.59 v -19.602" style="fill:#f68712;fill-opacity:1;fill-rule:nonzero;stroke:none"/><path id="path228" d="m 2086.34,240.449 h 19.6 v 19.59 h -19.6 v -19.59" style="fill:#f68712;fill-opacity:1;fill-rule:nonzero;stroke:none"/><path id="path230" d="m 2105.94,240.449 h 19.59 v 19.59 h -19.59 v -19.59" style="fill:#f68712;fill-opacity:1;fill-rule:nonzero;stroke:none"/><path id="path232" d="m 2047.15,260.039 h 19.6 v 19.602 h -19.6 v -19.602" style="fill:#f68712;fill-opacity:1;fill-rule:nonzero;stroke:none"/><path id="path234" d="m 2066.75,260.039 h 19.59 v 19.602 h -19.59 v -19.602" style="fill:#f68712;fill-opacity:1;fill-rule:nonzero;stroke:none"/><path id="path236" d="m 2047.15,240.449 h 19.6 v 19.59 h -19.6 v -19.59" style="fill:#f68712;fill-opacity:1;fill-rule:nonzero;stroke:none"/><path id="path238" d="m 2066.75,240.449 h 19.59 v 19.59 h -19.59 v -19.59" style="fill:#f68712;fill-opacity:1;fill-rule:nonzero;stroke:none"/><path id="path240" d="m 2125.54,260.039 h 19.6 v 19.602 h -19.6 v -19.602" style="fill:#f68712;fill-opacity:1;fill-rule:nonzero;stroke:none"/><path id="path242" d="m 2145.14,260.039 h 19.6 v 19.602 h -19.6 v -19.602" style="fill:#f68712;fill-opacity:1;fill-rule:nonzero;stroke:none"/><path id="path244" d="m 2125.54,240.449 h 19.6 v 19.59 h -19.6 v -19.59" style="fill:#f68712;fill-opacity:1;fill-rule:nonzero;stroke:none"/><path id="path246" d="m 2145.14,240.449 h 19.6 v 19.59 h -19.6 v -19.59" style="fill:#f68712;fill-opacity:1;fill-rule:nonzero;stroke:none"/><path id="path248" d="m 2086.34,220.852 h 19.6 v 19.597 h -19.6 v -19.597" style="fill:#f68712;fill-opacity:1;fill-rule:nonzero;stroke:none"/><path id="path250" d="m 2105.94,220.852 h 19.59 v 19.597 h -19.59 v -19.597" style="fill:#f68712;fill-opacity:1;fill-rule:nonzero;stroke:none"/><path id="path252" d="m 2047.15,220.852 h 19.6 v 19.597 h -19.6 v -19.597" style="fill:#f68712;fill-opacity:1;fill-rule:nonzero;stroke:none"/><path id="path254" d="m 2066.75,220.852 h 19.59 v 19.597 h -19.59 v -19.597" style="fill:#f68712;fill-opacity:1;fill-rule:nonzero;stroke:none"/><path id="path256" d="m 2125.54,220.852 h 19.6 v 19.597 h -19.6 v -19.597" style="fill:#f68712;fill-opacity:1;fill-rule:nonzero;stroke:none"/><path id="path258" d="m 2145.14,220.852 h 19.6 v 19.597 h -19.6 v -19.597" style="fill:#f68712;fill-opacity:1;fill-rule:nonzero;stroke:none"/><path id="path260" d="m 2125.54,181.758 h 19.6 v 19.601 h -19.6 v -19.601" style="fill:#f68712;fill-opacity:1;fill-rule:nonzero;stroke:none"/><path id="path262" d="m 2145.14,181.758 h 19.6 v 19.601 h -19.6 v -19.601" style="fill:#f68712;fill-opacity:1;fill-rule:nonzero;stroke:none"/><path id="path264" d="m 2026.98,201.359 h 19.59 v 19.598 h -19.59 v -19.598" style="fill:#f68712;fill-opacity:1;fill-rule:nonzero;stroke:none"/><path id="path266" d="m 2046.57,201.359 h 19.6 v 19.598 h -19.6 v -19.598" style="fill:#f68712;fill-opacity:1;fill-rule:nonzero;stroke:none"/><path id="path268" d="m 2066.17,201.359 h 19.59 v 19.598 h -19.59 v -19.598" style="fill:#f68712;fill-opacity:1;fill-rule:nonzero;stroke:none"/><path id="path270" d="m 2026.98,181.758 h 19.59 v 19.601 h -19.59 v -19.601" style="fill:#f68712;fill-opacity:1;fill-rule:nonzero;stroke:none"/><path id="path272" d="m 2046.57,181.758 h 19.6 v 19.601 h -19.6 v -19.601" style="fill:#f68712;fill-opacity:1;fill-rule:nonzero;stroke:none"/><path id="path274" d="m 2007.38,181.809 h 19.6 v 19.597 h -19.6 v -19.597" style="fill:#f68712;fill-opacity:1;fill-rule:nonzero;stroke:none"/><path id="path276" d="m 1987.78,162.219 h 19.6 v 19.59 h -19.6 v -19.59" style="fill:#f68712;fill-opacity:1;fill-rule:nonzero;stroke:none"/><path id="path278" d="m 2007.38,162.219 h 19.6 v 19.59 h -19.6 v -19.59" style="fill:#f68712;fill-opacity:1;fill-rule:nonzero;stroke:none"/><path id="path280" d="m 2026.98,162.219 h 19.59 v 19.59 h -19.59 v -19.59" style="fill:#f68712;fill-opacity:1;fill-rule:nonzero;stroke:none"/><path id="path282" d="m 2125.54,162.168 h 19.6 v 19.59 h -19.6 v -19.59" style="fill:#f68712;fill-opacity:1;fill-rule:nonzero;stroke:none"/><path id="path284" d="m 2145.14,162.168 h 19.6 v 19.59 h -19.6 v -19.59" style="fill:#f68712;fill-opacity:1;fill-rule:nonzero;stroke:none"/><path id="path286" d="m 2125.54,142.57 h 19.6 v 19.598 h -19.6 V 142.57" style="fill:#f68712;fill-opacity:1;fill-rule:nonzero;stroke:none"/><path id="path288" d="m 2145.14,142.57 h 19.6 v 19.598 h -19.6 V 142.57" style="fill:#f68712;fill-opacity:1;fill-rule:nonzero;stroke:none"/><path id="path290" d="m 2262.71,64.5625 h 19.58 v 58.9845 h -19.58 V 64.5625" style="fill:#f68712;fill-opacity:1;fill-rule:nonzero;stroke:none"/><path id="path292" d="m 2055.26,451.797 c -69.97,12.98 -81.52,54.332 -81.52,121.125 0,43.012 -10.2,67.922 -19.25,84.898 15.85,-2.269 28.29,-14.711 40.75,-32.82 l 2.26,16.992 c 2.29,18.09 5.67,35.086 5.67,53.188 0,20.383 -4.52,37.375 -19.24,52.097 20.35,-3.406 39.61,-16.996 48.67,-48.691 h 2.28 l 5.65,23.762 c 3.41,12.476 7.93,27.187 7.93,39.625 0,18.117 -4.52,46.422 -13.58,63.418 16.98,-7.934 31.69,-24.907 40.75,-39.633 5.63,9.058 9.06,30.566 9.06,41.875 0,12.465 -3.43,27.176 -3.43,35.113 0,27.152 22.87,36.895 22.87,50.098 0,-46.973 21.69,-86.672 34.89,-104.449 11.67,-15.704 17.44,-59.547 17.44,-59.547 l 1.29,-13.035 0.52,10.32 v 5.652 c 1.1,9.055 2.88,20.211 2.88,24.723 0,13.59 -7.41,33.023 -11.94,40.949 21.52,-5.656 43.01,-39.625 48.69,-58.863 6.77,-21.52 10.19,-44.18 10.19,-64.551 V 663.5 h 2.27 c 3.36,6.777 16.96,32.813 16.96,49.813 0,5.636 -3.39,14.714 -6.78,19.242 24.9,-14.727 33.94,-53.219 33.94,-78.117 0,-7.922 -1.15,-16.981 -2.25,-24.922 l -3.4,-33.953 c 4.5,3.402 10.19,14.73 12.45,23.785 4.53,-9.055 7.94,-27.176 7.94,-41.903 0,-66.785 -44.14,-126.781 -115.48,-126.781 -14.72,0 -29.46,3.399 -41.88,9.059 33.96,11.332 73.58,58.855 76.99,93.961 l -28.32,-27.196 9.05,22.676 c 4.52,9.043 7.92,26.027 7.92,33.949 0,5.66 -1.1,16.969 -2.26,20.367 h -2.25 c 0,-16.988 -10.2,-28.289 -20.39,-40.73 l -13.58,-19.258 c -1.12,1.153 -2.29,5.672 -2.29,9.059 0,15.828 11.35,30.562 11.35,47.531 0,10.211 -3.4,20.387 -10.18,36.231 l -10.2,27.187 h 1.14 -2.27 v -41.883 c 0,-20.383 -2.29,-29.445 -5.66,-39.633 l -12.45,-28.3 c -1.14,7.929 -3.4,15.851 -9.07,21.507 -5.65,6.793 -12.46,26.043 -14.7,36.219 h -2.28 c -1.15,-7.93 -5.66,-30.566 -5.66,-46.406 0,-19.25 7.94,-39.629 18.11,-55.481 -33.96,5.665 -44.14,47.528 -49.8,75.844 h -2.26 c -1.14,-6.793 -7.92,-33.957 -7.92,-49.82 0,-33.945 26.02,-69.031 58.86,-79.238 0,0 -5.06,-1.954 -8.19,-3.145 -4.01,-1.484 -7.84,-1.965 -11.96,-2.539 -3.1,-0.437 -3.72,-0.195 -6.26,-0.195 -2.53,0 -8.98,0.769 -12.07,1.367" style="fill:#5a5758;fill-opacity:1;fill-rule:nonzero;stroke:none"/><path id="path294" d="m 932.668,89.5117 -0.063,69.7183 34.575,0.02 c 0.41,-12.812 3.738,-22.258 10.008,-28.332 6.257,-6.043 13.417,-9.082 21.433,-9.082 6.239,0.019 11.549,2.219 15.839,6.594 4.3,4.363 6.45,9.492 6.47,15.39 -0.03,6.297 -2.12,11.571 -6.3,15.836 -4.21,4.27 -11.88,9.121 -23.021,14.555 -23.613,11.348 -39.617,21.394 -48.086,30.137 -8.433,8.726 -12.671,20.535 -12.683,35.371 -0.02,17.91 5.555,31.765 16.711,41.621 11.16,9.82 23.836,14.765 38.047,14.785 16.252,0 28.852,-6.34 37.772,-19.023 l -0.03,17.05 34.59,0.028 0.03,-62.285 -34.55,-0.032 c -1.1,9.653 -4.4,17.102 -9.91,22.375 -5.55,5.254 -11.97,7.879 -19.301,7.879 -5.676,0 -10.469,-1.531 -14.375,-4.578 -3.918,-3.035 -5.871,-7.031 -5.847,-11.934 -0.012,-4.218 1.597,-8.23 4.812,-12.019 3.215,-3.77 12.637,-9.133 28.241,-16.074 15.02,-6.731 26.58,-12.832 34.7,-18.274 8.08,-5.437 14.51,-12.488 19.22,-21.179 4.73,-8.672 7.09,-18.704 7.09,-30.079 0.02,-20.214 -5.85,-35.429 -17.6,-45.636 -11.75,-10.2268 -25.66,-15.3323 -41.74,-15.3518 -17.93,-0.0078 -31.759,6.6328 -41.473,19.8828 l 0.007,-17.3437 -34.566,-0.0196" style="fill:#5a5758;fill-opacity:1;fill-rule:nonzero;stroke:none"/><path id="path296" d="m 1162.07,197.98 h 7.96 c 18.26,0.02 30.02,3.008 35.28,8.954 5.26,5.937 7.87,13.32 7.87,22.168 -0.01,7.461 -1.84,13.82 -5.47,19.074 -3.64,5.23 -7.82,8.476 -12.53,9.707 -4.72,1.23 -12.45,1.836 -23.14,1.812 h -10.03 z m 28.63,-73.683 0.03,-34.5782 -107.72,-0.0782 -0.01,34.5704 25.98,0.019 -0.1,135.418 -26,-0.007 -0.03,34.55 107.85,0.094 c 25.11,0.024 44.51,-5.84 58.19,-17.594 13.7,-11.757 20.54,-27.57 20.57,-47.48 0.01,-11.379 -2.4,-21.684 -7.2,-30.957 -4.79,-9.27 -10.96,-16.367 -18.46,-21.328 -7.53,-4.961 -16.11,-8.36 -25.79,-10.168 -9.67,-1.817 -21.78,-2.742 -36.31,-2.754 l -19.62,-0.012 0.04,-39.722 28.58,0.027" style="fill:#5a5758;fill-opacity:1;fill-rule:nonzero;stroke:none"/><path id="path298" d="m 1366.63,189.59 -17.09,61.594 -18.35,-61.614 z m 92.48,-65.059 0.04,-34.5701 -100.58,-0.0859 -0.02,34.578 26.24,0.031 -9.71,35.125 -53.15,-0.046 -10.84,-35.161 27.45,0.032 0.03,-34.5707 -90.85,-0.0781 -0.01,34.5698 25.42,0.032 39.77,135.437 -27.31,-0.019 -0.04,34.57 133.7,0.109 0.04,-34.562 -27.54,-0.027 43.07,-135.372 24.29,0.008" style="fill:#5a5758;fill-opacity:1;fill-rule:nonzero;stroke:none"/><path id="path300" d="m 1554.26,212.336 h 18.3 c 22.66,0.019 33.96,8.047 33.95,24.109 0,7.918 -2.58,13.836 -7.78,17.754 -5.15,3.906 -12.27,5.86 -21.33,5.86 l -23.17,-0.032 z m 132.35,-87.609 0.02,-34.5707 -62.41,-0.0586 -46.3,89.6793 -23.65,-0.019 0.06,-55.141 25.72,0.024 0.02,-34.5824 -106.86,-0.0781 -0.03,34.5625 28,0.02 -0.11,135.425 -27.99,-0.015 -0.04,34.558 123.5,0.11 c 23.24,0.007 39.99,-5.821 50.26,-17.524 10.28,-11.676 15.41,-24.922 15.43,-39.715 0.02,-23.191 -11.82,-40.156 -35.47,-50.832 l 33.27,-61.851 26.58,0.008" style="fill:#5a5758;fill-opacity:1;fill-rule:nonzero;stroke:none"/><path id="path302" d="m 1820.67,90.2656 -0.04,34.5784 23.8,0.019 -62.15,72.649 66.96,62.769 -24.45,-0.027 -0.01,34.582 99.69,0.074 0.04,-34.558 -24.97,-0.032 -57.86,-56.668 67.38,-78.742 21.27,0.012 0.04,-34.5509 z m -120.56,-0.0898 -0.04,34.5622 27.41,0.02 -0.09,135.418 -27.43,-0.028 -0.05,34.571 106.28,0.097 0.03,-34.574 -25.68,-0.015 0.1,-135.411 23.71,0.02 0.02,-34.5704 -104.26,-0.0898" style="fill:#5a5758;fill-opacity:1;fill-rule:nonzero;stroke:none"/><path id="path304" d="m 38.6953,178.152 c 0,-18.765 5.461,-34.097 16.3789,-45.972 10.918,-11.875 24.8711,-17.817 41.8555,-17.817 16.6013,0 30.9063,5.969 42.9143,17.914 12.004,11.942 18.004,27.293 18.004,46.075 0,19.023 -6,34.316 -18.004,45.878 -12.008,11.551 -25.93,17.333 -41.762,17.333 -15.8398,0 -29.6914,-5.711 -41.5742,-17.149 C 44.6328,212.988 38.6953,197.57 38.6953,178.152 Z M 227.004,272.793 V 240.41 H 193.672 V 102.297 c 0,-18.6447 -0.957,-32.4728 -2.875,-41.4767 C 188.883,51.8164 184.254,42.6289 176.91,33.2344 169.566,23.8477 158.551,15.9688 143.863,9.57813 129.176,3.19531 112.766,0 94.6328,0 67.3008,0 42.9102,8.23438 21.457,24.707 L 45.2109,51.1523 C 61.2969,38.6328 78.793,32.375 97.6953,32.375 c 10.4727,0 20.1797,2.0117 29.1207,6.0313 8.938,4.0273 15.61,8.9101 20.02,14.6601 4.402,5.7422 7.246,11.2031 8.519,16.3789 1.282,5.1719 1.918,13.8828 1.918,26.1524 v 16.8513 c -5.746,-7.281 -14.75,-14.1756 -27.007,-20.6912 -12.262,-6.5156 -25.672,-9.7656 -40.2308,-9.7656 -26.5625,0 -48.2149,9.1914 -64.9414,27.5778 C 8.36328,127.969 0,150.566 0,177.395 c 0,29.363 9.22266,53.085 27.6797,71.16 18.4531,18.078 39.8164,27.109 64.0781,27.109 24.5192,0 46.3552,-9.773 65.5152,-29.305 v 26.434 h 69.731" style="fill:#5a5758;fill-opacity:1;fill-rule:nonzero;stroke:none"/><path id="path306" d="m 397.965,197.316 c -2.559,13.028 -9.328,24.801 -20.309,35.34 -10.984,10.539 -24.457,15.801 -40.422,15.801 -14.558,0 -27.007,-4.758 -37.351,-14.266 -10.348,-9.511 -16.668,-21.808 -18.965,-36.875 z m 37.543,-26.437 H 279.574 c 2.301,-17.117 9.071,-30.977 20.309,-41.57 11.234,-10.61 25.601,-15.903 43.101,-15.903 25.414,0 45.528,10.219 60.34,30.649 l 32.184,-14.172 C 425.039,113.66 411.438,101.621 394.707,93.7695 377.973,85.918 360.48,81.9922 342.219,81.9922 c -28.352,0 -52.586,8.8359 -72.703,26.5348 -20.114,17.684 -30.168,41.532 -30.168,71.543 0,28.477 9.797,51.914 29.402,70.301 19.605,18.399 42.113,27.59 67.527,27.59 24.907,0 47.477,-8.977 67.723,-26.914 20.238,-17.942 30.746,-44.668 31.508,-80.168" style="fill:#5a5758;fill-opacity:1;fill-rule:nonzero;stroke:none"/><path id="path308" d="m 620.273,197.316 c -2.558,13.028 -9.328,24.801 -20.308,35.34 -10.985,10.539 -24.457,15.801 -40.418,15.801 -14.563,0 -27.012,-4.758 -37.356,-14.266 -10.343,-9.511 -16.668,-21.808 -18.964,-36.875 z m 37.543,-26.437 H 501.887 c 2.297,-17.117 9.066,-30.977 20.304,-41.57 11.239,-10.61 25.602,-15.903 43.102,-15.903 25.414,0 45.527,10.219 60.344,30.649 l 32.179,-14.172 c -10.468,-16.223 -24.07,-28.262 -40.8,-36.1135 -16.735,-7.8515 -34.227,-11.7773 -52.489,-11.7773 -28.351,0 -52.586,8.8359 -72.703,26.5348 -20.109,17.684 -30.168,41.532 -30.168,71.543 0,28.477 9.797,51.914 29.403,70.301 19.605,18.399 42.117,27.59 67.531,27.59 24.902,0 47.473,-8.977 67.719,-26.914 20.238,-17.942 30.746,-44.668 31.507,-80.168" style="fill:#5a5758;fill-opacity:1;fill-rule:nonzero;stroke:none"/><path id="path310" d="m 713.953,119.727 v 201.718 h -33.328 v 32.375 h 69.727 V 187.355 l 69.351,55.36 h -30.848 v 30.078 h 102.493 v -30.078 h -28.356 l -69.535,-57.852 65.32,-65.136 h 32.571 V 87.3555 h -47.7 l -93.296,93.2895 v -60.918 h 31.992 V 87.3555 H 680.625 v 32.3715 h 33.328" style="fill:#5a5758;fill-opacity:1;fill-rule:nonzero;stroke:none"/></g><g id="g11267" transform="matrix(0.07143438,0,0,-0.07143438,272.74786,-181.04807)"><path style="fill:#f68712;fill-opacity:1;fill-rule:nonzero;stroke:none" id="path10969" d="m 2164.74,104.23 h 97.97 v 38.438 h -97.97 V 104.23"/><path style="fill:#f68712;fill-opacity:1;fill-rule:nonzero;stroke:none" id="path10971" d="m 1968.04,24.3242 h 58.98 v 19.6016 h -58.98 V 24.3242"/><path style="fill:#f68712;fill-opacity:1;fill-rule:nonzero;stroke:none" id="path10973" d="m 2006.81,103.477 h 39.23 v 19.503 h -39.23 v -19.503"/><path style="fill:#f68712;fill-opacity:1;fill-rule:nonzero;stroke:none" id="path10975" d="m 2006.81,43.9258 h 20.03 V 122.98 h -20.03 V 43.9258"/><path style="fill:#f68712;fill-opacity:1;fill-rule:nonzero;stroke:none" id="path10977" d="m 2006.95,64.2773 h 39.24 v 39.1017 h -39.24 V 64.2773"/><path style="fill:#f68712;fill-opacity:1;fill-rule:nonzero;stroke:none" id="path10979" d="m 1987.7,142.512 h 39.18 v 19.707 h -39.18 v -19.707"/><path style="fill:#f68712;fill-opacity:1;fill-rule:nonzero;stroke:none" id="path10981" d="m 1987.7,122.629 h 39.18 v 19.695 h -39.18 v -19.695"/><path style="fill:#f68712;fill-opacity:1;fill-rule:nonzero;stroke:none" id="path10983" d="m 2188.85,553.684 -28.32,-27.196 9.05,22.676 c 4.52,9.043 7.92,26.027 7.92,33.949 0,5.66 -1.1,16.969 -2.26,20.367 h -2.25 c 0,-16.988 -10.2,-28.289 -20.39,-40.73 l -13.58,-19.258 c -1.12,1.153 -2.29,5.672 -2.29,9.059 0,15.828 11.35,30.562 11.35,47.531 0,10.211 -3.4,20.387 -10.18,36.231 l -10.2,27.187 h -1.13 v -41.883 c 0,-20.383 -2.29,-29.445 -5.66,-39.633 l -12.45,-28.3 c -1.14,7.929 -3.4,15.851 -9.07,21.507 -5.65,6.793 -12.46,26.043 -14.7,36.219 h -2.28 c -1.15,-7.93 -5.66,-30.566 -5.66,-46.406 0,-19.25 7.94,-39.629 18.11,-55.481 -33.96,5.665 -44.14,47.528 -49.8,75.844 h -2.26 c -1.14,-6.793 -7.92,-33.957 -7.92,-49.82 0,-30.52 19.33,-66.664 47.43,-80.117 l 51.88,-0.379 c 33.68,12.039 51.28,63.941 54.66,98.633"/><path style="fill:#f68712;fill-opacity:1;fill-rule:nonzero;stroke:none" id="path10985" d="m 2125.54,201.359 h 19.6 v 19.598 h -19.6 v -19.598"/><path style="fill:#f68712;fill-opacity:1;fill-rule:nonzero;stroke:none" id="path10987" d="m 2145.14,201.359 h 19.6 v 19.598 h -19.6 v -19.598"/><path style="fill:#f68712;fill-opacity:1;fill-rule:nonzero;stroke:none" id="path10989" d="m 2086.34,436.406 h 19.6 v 19.59 h -19.6 v -19.59"/><path style="fill:#f68712;fill-opacity:1;fill-rule:nonzero;stroke:none" id="path10991" d="m 2105.94,436.406 h 19.59 v 19.59 h -19.59 v -19.59"/><path style="fill:#f68712;fill-opacity:1;fill-rule:nonzero;stroke:none" id="path10993" d="m 2086.34,416.816 h 19.6 v 19.59 h -19.6 v -19.59"/><path style="fill:#f68712;fill-opacity:1;fill-rule:nonzero;stroke:none" id="path10995" d="m 2105.94,416.816 h 19.59 v 19.59 h -19.59 v -19.59"/><path style="fill:#f68712;fill-opacity:1;fill-rule:nonzero;stroke:none" id="path10997" d="m 2086.34,397.219 h 19.6 v 19.597 h -19.6 v -19.597"/><path style="fill:#f68712;fill-opacity:1;fill-rule:nonzero;stroke:none" id="path10999" d="m 2105.94,397.219 h 19.59 v 19.597 h -19.59 v -19.597"/><path style="fill:#f68712;fill-opacity:1;fill-rule:nonzero;stroke:none" id="path11001" d="m 2047.15,416.816 h 19.6 v 19.59 h -19.6 v -19.59"/><path style="fill:#f68712;fill-opacity:1;fill-rule:nonzero;stroke:none" id="path11003" d="m 2066.75,416.816 h 19.59 v 19.59 h -19.59 v -19.59"/><path style="fill:#f68712;fill-opacity:1;fill-rule:nonzero;stroke:none" id="path11005" d="m 2047.15,397.219 h 19.6 v 19.597 h -19.6 v -19.597"/><path style="fill:#f68712;fill-opacity:1;fill-rule:nonzero;stroke:none" id="path11007" d="m 2066.75,397.219 h 19.59 v 19.597 h -19.59 v -19.597"/><path style="fill:#f68712;fill-opacity:1;fill-rule:nonzero;stroke:none" id="path11009" d="m 2008.34,416.816 h 19.6 v 19.59 h -19.6 v -19.59"/><path style="fill:#f68712;fill-opacity:1;fill-rule:nonzero;stroke:none" id="path11011" d="m 2027.94,416.816 h 19.6 v 19.59 h -19.6 v -19.59"/><path style="fill:#f68712;fill-opacity:1;fill-rule:nonzero;stroke:none" id="path11013" d="m 2008.34,397.219 h 19.6 v 19.597 h -19.6 v -19.597"/><path style="fill:#f68712;fill-opacity:1;fill-rule:nonzero;stroke:none" id="path11015" d="m 2027.94,397.219 h 19.6 v 19.597 h -19.6 v -19.597"/><path style="fill:#f68712;fill-opacity:1;fill-rule:nonzero;stroke:none" id="path11017" d="m 1969.53,397.219 h 19.59 v 19.597 h -19.59 v -19.597"/><path style="fill:#f68712;fill-opacity:1;fill-rule:nonzero;stroke:none" id="path11019" d="m 1989.12,397.219 h 19.6 v 19.597 h -19.6 v -19.597"/><path style="fill:#f68712;fill-opacity:1;fill-rule:nonzero;stroke:none" id="path11021" d="m 1969.53,377.617 h 19.59 v 19.602 h -19.59 v -19.602"/><path style="fill:#f68712;fill-opacity:1;fill-rule:nonzero;stroke:none" id="path11023" d="m 1989.12,377.617 h 19.6 v 19.602 h -19.6 v -19.602"/><path style="fill:#f68712;fill-opacity:1;fill-rule:nonzero;stroke:none" id="path11025" d="m 1930.34,377.617 h 19.59 v 19.602 h -19.59 v -19.602"/><path style="fill:#f68712;fill-opacity:1;fill-rule:nonzero;stroke:none" id="path11027" d="m 1949.93,377.617 h 19.6 v 19.602 h -19.6 v -19.602"/><path style="fill:#f68712;fill-opacity:1;fill-rule:nonzero;stroke:none" id="path11029" d="m 1930.34,357.871 h 19.59 v 19.609 h -19.59 v -19.609"/><path style="fill:#f68712;fill-opacity:1;fill-rule:nonzero;stroke:none" id="path11031" d="m 1949.93,357.871 h 19.6 v 19.609 h -19.6 v -19.609"/><path style="fill:#f68712;fill-opacity:1;fill-rule:nonzero;stroke:none" id="path11033" d="m 1891.14,397.219 h 19.6 v 19.597 h -19.6 v -19.597"/><path style="fill:#f68712;fill-opacity:1;fill-rule:nonzero;stroke:none" id="path11035" d="m 1910.74,397.219 h 19.6 v 19.597 h -19.6 v -19.597"/><path style="fill:#f68712;fill-opacity:1;fill-rule:nonzero;stroke:none" id="path11037" d="m 1891.14,377.48 h 19.6 v 19.59 h -19.6 v -19.59"/><path style="fill:#f68712;fill-opacity:1;fill-rule:nonzero;stroke:none" id="path11039" d="m 1910.74,377.48 h 19.6 v 19.59 h -19.6 v -19.59"/><path style="fill:#f68712;fill-opacity:1;fill-rule:nonzero;stroke:none" id="path11041" d="m 1851.95,397.219 h 19.6 v 19.597 h -19.6 v -19.597"/><path style="fill:#f68712;fill-opacity:1;fill-rule:nonzero;stroke:none" id="path11043" d="m 1871.55,397.219 h 19.59 v 19.597 h -19.59 v -19.597"/><path style="fill:#f68712;fill-opacity:1;fill-rule:nonzero;stroke:none" id="path11045" d="m 1812.76,416.816 h 19.6 v 19.59 h -19.6 v -19.59"/><path style="fill:#f68712;fill-opacity:1;fill-rule:nonzero;stroke:none" id="path11047" d="m 1832.36,416.816 h 19.59 v 19.59 h -19.59 v -19.59"/><path style="fill:#f68712;fill-opacity:1;fill-rule:nonzero;stroke:none" id="path11049" d="m 1851.95,377.48 h 19.6 v 19.59 h -19.6 v -19.59"/><path style="fill:#f68712;fill-opacity:1;fill-rule:nonzero;stroke:none" id="path11051" d="m 1871.55,377.48 h 19.59 v 19.59 h -19.59 v -19.59"/><path style="fill:#f68712;fill-opacity:1;fill-rule:nonzero;stroke:none" id="path11053" d="m 2164.35,416.816 h 19.6 v 19.59 h -19.6 v -19.59"/><path style="fill:#f68712;fill-opacity:1;fill-rule:nonzero;stroke:none" id="path11055" d="m 2183.95,416.816 h 19.59 v 19.59 h -19.59 v -19.59"/><path style="fill:#f68712;fill-opacity:1;fill-rule:nonzero;stroke:none" id="path11057" d="m 2164.35,397.219 h 19.6 v 19.597 h -19.6 v -19.597"/><path style="fill:#f68712;fill-opacity:1;fill-rule:nonzero;stroke:none" id="path11059" d="m 2183.95,397.219 h 19.59 v 19.597 h -19.59 v -19.597"/><path style="fill:#f68712;fill-opacity:1;fill-rule:nonzero;stroke:none" id="path11061" d="m 2203.49,416.816 h 19.59 v 19.59 h -19.59 v -19.59"/><path style="fill:#f68712;fill-opacity:1;fill-rule:nonzero;stroke:none" id="path11063" d="m 2223.08,416.816 h 19.6 v 19.59 h -19.6 v -19.59"/><path style="fill:#f68712;fill-opacity:1;fill-rule:nonzero;stroke:none" id="path11065" d="m 2203.49,397.219 h 19.59 v 19.597 h -19.59 v -19.597"/><path style="fill:#f68712;fill-opacity:1;fill-rule:nonzero;stroke:none" id="path11067" d="m 2223.08,397.219 h 19.6 v 19.597 h -19.6 v -19.597"/><path style="fill:#f68712;fill-opacity:1;fill-rule:nonzero;stroke:none" id="path11069" d="m 2242.76,397.168 h 19.6 v 19.602 h -19.6 v -19.602"/><path style="fill:#f68712;fill-opacity:1;fill-rule:nonzero;stroke:none" id="path11071" d="m 2262.36,397.168 h 19.6 v 19.602 h -19.6 v -19.602"/><path style="fill:#f68712;fill-opacity:1;fill-rule:nonzero;stroke:none" id="path11073" d="m 2242.76,377.578 h 19.6 v 19.59 h -19.6 v -19.59"/><path style="fill:#f68712;fill-opacity:1;fill-rule:nonzero;stroke:none" id="path11075" d="m 2262.36,377.578 h 19.6 v 19.59 h -19.6 v -19.59"/><path style="fill:#f68712;fill-opacity:1;fill-rule:nonzero;stroke:none" id="path11077" d="m 2282.1,377.578 h 19.6 v 19.59 h -19.6 v -19.59"/><path style="fill:#f68712;fill-opacity:1;fill-rule:nonzero;stroke:none" id="path11079" d="m 2301.7,377.578 h 19.59 v 19.59 h -19.59 v -19.59"/><path style="fill:#f68712;fill-opacity:1;fill-rule:nonzero;stroke:none" id="path11081" d="m 2282.1,357.988 h 19.6 v 19.59 h -19.6 v -19.59"/><path style="fill:#f68712;fill-opacity:1;fill-rule:nonzero;stroke:none" id="path11083" d="m 2301.7,357.988 h 19.59 v 19.59 h -19.59 v -19.59"/><path style="fill:#f68712;fill-opacity:1;fill-rule:nonzero;stroke:none" id="path11085" d="m 2282.25,338.391 h 19.59 v 19.597 h -19.59 v -19.597"/><path style="fill:#f68712;fill-opacity:1;fill-rule:nonzero;stroke:none" id="path11087" d="m 2301.84,338.391 h 19.6 v 19.597 h -19.6 v -19.597"/><path style="fill:#f68712;fill-opacity:1;fill-rule:nonzero;stroke:none" id="path11089" d="m 2262.65,318.789 h 19.6 v 19.602 h -19.6 v -19.602"/><path style="fill:#f68712;fill-opacity:1;fill-rule:nonzero;stroke:none" id="path11091" d="m 2262.65,299.191 h 19.6 v 19.598 h -19.6 v -19.598"/><path style="fill:#f68712;fill-opacity:1;fill-rule:nonzero;stroke:none" id="path11093" d="m 2243.05,299.191 h 19.6 v 19.598 h -19.6 v -19.598"/><path style="fill:#f68712;fill-opacity:1;fill-rule:nonzero;stroke:none" id="path11095" d="m 2223.31,279.738 h 19.6 v 19.598 h -19.6 v -19.598"/><path style="fill:#f68712;fill-opacity:1;fill-rule:nonzero;stroke:none" id="path11097" d="m 2282.25,318.789 h 19.59 v 19.602 h -19.59 v -19.602"/><path style="fill:#f68712;fill-opacity:1;fill-rule:nonzero;stroke:none" id="path11099" d="m 2125.54,416.816 h 19.6 v 19.59 h -19.6 v -19.59"/><path style="fill:#f68712;fill-opacity:1;fill-rule:nonzero;stroke:none" id="path11101" d="m 2145.14,416.816 h 19.6 v 19.59 h -19.6 v -19.59"/><path style="fill:#f68712;fill-opacity:1;fill-rule:nonzero;stroke:none" id="path11103" d="m 2125.54,397.219 h 19.6 v 19.597 h -19.6 v -19.597"/><path style="fill:#f68712;fill-opacity:1;fill-rule:nonzero;stroke:none" id="path11105" d="m 2145.14,397.219 h 19.6 v 19.597 h -19.6 v -19.597"/><path style="fill:#f68712;fill-opacity:1;fill-rule:nonzero;stroke:none" id="path11107" d="m 2086.34,377.617 h 19.6 v 19.602 h -19.6 v -19.602"/><path style="fill:#f68712;fill-opacity:1;fill-rule:nonzero;stroke:none" id="path11109" d="m 2105.94,377.617 h 19.59 v 19.602 h -19.59 v -19.602"/><path style="fill:#f68712;fill-opacity:1;fill-rule:nonzero;stroke:none" id="path11111" d="m 2086.34,358.027 h 19.6 v 19.59 h -19.6 v -19.59"/><path style="fill:#f68712;fill-opacity:1;fill-rule:nonzero;stroke:none" id="path11113" d="m 2105.94,358.027 h 19.59 v 19.59 h -19.59 v -19.59"/><path style="fill:#f68712;fill-opacity:1;fill-rule:nonzero;stroke:none" id="path11115" d="m 2047.15,377.617 h 19.6 v 19.602 h -19.6 v -19.602"/><path style="fill:#f68712;fill-opacity:1;fill-rule:nonzero;stroke:none" id="path11117" d="m 2066.75,377.617 h 19.59 v 19.602 h -19.59 v -19.602"/><path style="fill:#f68712;fill-opacity:1;fill-rule:nonzero;stroke:none" id="path11119" d="m 2047.15,358.027 h 19.6 v 19.59 h -19.6 v -19.59"/><path style="fill:#f68712;fill-opacity:1;fill-rule:nonzero;stroke:none" id="path11121" d="m 2066.75,358.027 h 19.59 v 19.59 h -19.59 v -19.59"/><path style="fill:#f68712;fill-opacity:1;fill-rule:nonzero;stroke:none" id="path11123" d="m 2125.54,377.617 h 19.6 v 19.602 h -19.6 v -19.602"/><path style="fill:#f68712;fill-opacity:1;fill-rule:nonzero;stroke:none" id="path11125" d="m 2145.14,377.617 h 19.6 v 19.602 h -19.6 v -19.602"/><path style="fill:#f68712;fill-opacity:1;fill-rule:nonzero;stroke:none" id="path11127" d="m 2125.54,358.027 h 19.6 v 19.59 h -19.6 v -19.59"/><path style="fill:#f68712;fill-opacity:1;fill-rule:nonzero;stroke:none" id="path11129" d="m 2145.14,358.027 h 19.6 v 19.59 h -19.6 v -19.59"/><path style="fill:#f68712;fill-opacity:1;fill-rule:nonzero;stroke:none" id="path11131" d="m 2086.34,338.43 h 19.6 v 19.597 h -19.6 V 338.43"/><path style="fill:#f68712;fill-opacity:1;fill-rule:nonzero;stroke:none" id="path11133" d="m 2105.94,338.43 h 19.59 v 19.597 h -19.59 V 338.43"/><path style="fill:#f68712;fill-opacity:1;fill-rule:nonzero;stroke:none" id="path11135" d="m 2086.34,318.828 h 19.6 v 19.602 h -19.6 v -19.602"/><path style="fill:#f68712;fill-opacity:1;fill-rule:nonzero;stroke:none" id="path11137" d="m 2105.94,318.828 h 19.59 v 19.602 h -19.59 v -19.602"/><path style="fill:#f68712;fill-opacity:1;fill-rule:nonzero;stroke:none" id="path11139" d="m 2047.15,338.43 h 19.6 v 19.597 h -19.6 V 338.43"/><path style="fill:#f68712;fill-opacity:1;fill-rule:nonzero;stroke:none" id="path11141" d="m 2066.75,338.43 h 19.59 v 19.597 h -19.59 V 338.43"/><path style="fill:#f68712;fill-opacity:1;fill-rule:nonzero;stroke:none" id="path11143" d="m 2047.15,318.828 h 19.6 v 19.602 h -19.6 v -19.602"/><path style="fill:#f68712;fill-opacity:1;fill-rule:nonzero;stroke:none" id="path11145" d="m 2066.75,318.828 h 19.59 v 19.602 h -19.59 v -19.602"/><path style="fill:#f68712;fill-opacity:1;fill-rule:nonzero;stroke:none" id="path11147" d="m 2125.54,338.43 h 19.6 v 19.597 h -19.6 V 338.43"/><path style="fill:#f68712;fill-opacity:1;fill-rule:nonzero;stroke:none" id="path11149" d="m 2145.14,338.43 h 19.6 v 19.597 h -19.6 V 338.43"/><path style="fill:#f68712;fill-opacity:1;fill-rule:nonzero;stroke:none" id="path11151" d="m 2125.54,318.828 h 19.6 v 19.602 h -19.6 v -19.602"/><path style="fill:#f68712;fill-opacity:1;fill-rule:nonzero;stroke:none" id="path11153" d="m 2145.14,318.828 h 19.6 v 19.602 h -19.6 v -19.602"/><path style="fill:#f68712;fill-opacity:1;fill-rule:nonzero;stroke:none" id="path11155" d="m 2086.34,299.23 h 19.6 v 19.598 h -19.6 V 299.23"/><path style="fill:#f68712;fill-opacity:1;fill-rule:nonzero;stroke:none" id="path11157" d="m 2105.94,299.23 h 19.59 v 19.598 h -19.59 V 299.23"/><path style="fill:#f68712;fill-opacity:1;fill-rule:nonzero;stroke:none" id="path11159" d="m 2086.34,279.641 h 19.6 v 19.589 h -19.6 v -19.589"/><path style="fill:#f68712;fill-opacity:1;fill-rule:nonzero;stroke:none" id="path11161" d="m 2105.94,279.641 h 19.59 v 19.589 h -19.59 v -19.589"/><path style="fill:#f68712;fill-opacity:1;fill-rule:nonzero;stroke:none" id="path11163" d="m 2047.15,299.23 h 19.6 v 19.598 h -19.6 V 299.23"/><path style="fill:#f68712;fill-opacity:1;fill-rule:nonzero;stroke:none" id="path11165" d="m 2066.75,299.23 h 19.59 v 19.598 h -19.59 V 299.23"/><path style="fill:#f68712;fill-opacity:1;fill-rule:nonzero;stroke:none" id="path11167" d="m 2047.15,279.641 h 19.6 v 19.589 h -19.6 v -19.589"/><path style="fill:#f68712;fill-opacity:1;fill-rule:nonzero;stroke:none" id="path11169" d="m 2066.75,279.641 h 19.59 v 19.589 h -19.59 v -19.589"/><path style="fill:#f68712;fill-opacity:1;fill-rule:nonzero;stroke:none" id="path11171" d="m 2125.54,299.23 h 19.6 v 19.598 h -19.6 V 299.23"/><path style="fill:#f68712;fill-opacity:1;fill-rule:nonzero;stroke:none" id="path11173" d="m 2145.14,299.23 h 19.6 v 19.598 h -19.6 V 299.23"/><path style="fill:#f68712;fill-opacity:1;fill-rule:nonzero;stroke:none" id="path11175" d="m 2125.54,279.641 h 19.6 v 19.589 h -19.6 v -19.589"/><path style="fill:#f68712;fill-opacity:1;fill-rule:nonzero;stroke:none" id="path11177" d="m 2145.14,279.641 h 19.6 v 19.589 h -19.6 v -19.589"/><path style="fill:#f68712;fill-opacity:1;fill-rule:nonzero;stroke:none" id="path11179" d="m 2086.34,260.039 h 19.6 v 19.602 h -19.6 v -19.602"/><path style="fill:#f68712;fill-opacity:1;fill-rule:nonzero;stroke:none" id="path11181" d="m 2105.94,260.039 h 19.59 v 19.602 h -19.59 v -19.602"/><path style="fill:#f68712;fill-opacity:1;fill-rule:nonzero;stroke:none" id="path11183" d="m 2086.34,240.449 h 19.6 v 19.59 h -19.6 v -19.59"/><path style="fill:#f68712;fill-opacity:1;fill-rule:nonzero;stroke:none" id="path11185" d="m 2105.94,240.449 h 19.59 v 19.59 h -19.59 v -19.59"/><path style="fill:#f68712;fill-opacity:1;fill-rule:nonzero;stroke:none" id="path11187" d="m 2047.15,260.039 h 19.6 v 19.602 h -19.6 v -19.602"/><path style="fill:#f68712;fill-opacity:1;fill-rule:nonzero;stroke:none" id="path11189" d="m 2066.75,260.039 h 19.59 v 19.602 h -19.59 v -19.602"/><path style="fill:#f68712;fill-opacity:1;fill-rule:nonzero;stroke:none" id="path11191" d="m 2047.15,240.449 h 19.6 v 19.59 h -19.6 v -19.59"/><path style="fill:#f68712;fill-opacity:1;fill-rule:nonzero;stroke:none" id="path11193" d="m 2066.75,240.449 h 19.59 v 19.59 h -19.59 v -19.59"/><path style="fill:#f68712;fill-opacity:1;fill-rule:nonzero;stroke:none" id="path11195" d="m 2125.54,260.039 h 19.6 v 19.602 h -19.6 v -19.602"/><path style="fill:#f68712;fill-opacity:1;fill-rule:nonzero;stroke:none" id="path11197" d="m 2145.14,260.039 h 19.6 v 19.602 h -19.6 v -19.602"/><path style="fill:#f68712;fill-opacity:1;fill-rule:nonzero;stroke:none" id="path11199" d="m 2125.54,240.449 h 19.6 v 19.59 h -19.6 v -19.59"/><path style="fill:#f68712;fill-opacity:1;fill-rule:nonzero;stroke:none" id="path11201" d="m 2145.14,240.449 h 19.6 v 19.59 h -19.6 v -19.59"/><path style="fill:#f68712;fill-opacity:1;fill-rule:nonzero;stroke:none" id="path11203" d="m 2086.34,220.852 h 19.6 v 19.597 h -19.6 v -19.597"/><path style="fill:#f68712;fill-opacity:1;fill-rule:nonzero;stroke:none" id="path11205" d="m 2105.94,220.852 h 19.59 v 19.597 h -19.59 v -19.597"/><path style="fill:#f68712;fill-opacity:1;fill-rule:nonzero;stroke:none" id="path11207" d="m 2047.15,220.852 h 19.6 v 19.597 h -19.6 v -19.597"/><path style="fill:#f68712;fill-opacity:1;fill-rule:nonzero;stroke:none" id="path11209" d="m 2066.75,220.852 h 19.59 v 19.597 h -19.59 v -19.597"/><path style="fill:#f68712;fill-opacity:1;fill-rule:nonzero;stroke:none" id="path11211" d="m 2125.54,220.852 h 19.6 v 19.597 h -19.6 v -19.597"/><path style="fill:#f68712;fill-opacity:1;fill-rule:nonzero;stroke:none" id="path11213" d="m 2145.14,220.852 h 19.6 v 19.597 h -19.6 v -19.597"/><path style="fill:#f68712;fill-opacity:1;fill-rule:nonzero;stroke:none" id="path11215" d="m 2125.54,181.758 h 19.6 v 19.601 h -19.6 v -19.601"/><path style="fill:#f68712;fill-opacity:1;fill-rule:nonzero;stroke:none" id="path11217" d="m 2145.14,181.758 h 19.6 v 19.601 h -19.6 v -19.601"/><path style="fill:#f68712;fill-opacity:1;fill-rule:nonzero;stroke:none" id="path11219" d="m 2026.98,201.359 h 19.59 v 19.598 h -19.59 v -19.598"/><path style="fill:#f68712;fill-opacity:1;fill-rule:nonzero;stroke:none" id="path11221" d="m 2046.57,201.359 h 19.6 v 19.598 h -19.6 v -19.598"/><path style="fill:#f68712;fill-opacity:1;fill-rule:nonzero;stroke:none" id="path11223" d="m 2066.17,201.359 h 19.59 v 19.598 h -19.59 v -19.598"/><path style="fill:#f68712;fill-opacity:1;fill-rule:nonzero;stroke:none" id="path11225" d="m 2026.98,181.758 h 19.59 v 19.601 h -19.59 v -19.601"/><path style="fill:#f68712;fill-opacity:1;fill-rule:nonzero;stroke:none" id="path11227" d="m 2046.57,181.758 h 19.6 v 19.601 h -19.6 v -19.601"/><path style="fill:#f68712;fill-opacity:1;fill-rule:nonzero;stroke:none" id="path11229" d="m 2007.38,181.809 h 19.6 v 19.597 h -19.6 v -19.597"/><path style="fill:#f68712;fill-opacity:1;fill-rule:nonzero;stroke:none" id="path11231" d="m 1987.78,162.219 h 19.6 v 19.59 h -19.6 v -19.59"/><path style="fill:#f68712;fill-opacity:1;fill-rule:nonzero;stroke:none" id="path11233" d="m 2007.38,162.219 h 19.6 v 19.59 h -19.6 v -19.59"/><path style="fill:#f68712;fill-opacity:1;fill-rule:nonzero;stroke:none" id="path11235" d="m 2026.98,162.219 h 19.59 v 19.59 h -19.59 v -19.59"/><path style="fill:#f68712;fill-opacity:1;fill-rule:nonzero;stroke:none" id="path11237" d="m 2125.54,162.168 h 19.6 v 19.59 h -19.6 v -19.59"/><path style="fill:#f68712;fill-opacity:1;fill-rule:nonzero;stroke:none" id="path11239" d="m 2145.14,162.168 h 19.6 v 19.59 h -19.6 v -19.59"/><path style="fill:#f68712;fill-opacity:1;fill-rule:nonzero;stroke:none" id="path11241" d="m 2125.54,142.57 h 19.6 v 19.598 h -19.6 V 142.57"/><path style="fill:#f68712;fill-opacity:1;fill-rule:nonzero;stroke:none" id="path11243" d="m 2145.14,142.57 h 19.6 v 19.598 h -19.6 V 142.57"/><path style="fill:#f68712;fill-opacity:1;fill-rule:nonzero;stroke:none" id="path11245" d="m 2262.71,64.5625 h 19.58 v 58.9845 h -19.58 V 64.5625"/><path style="fill:#5a5758;fill-opacity:1;fill-rule:nonzero;stroke:none" id="path11247" d="m 2055.26,451.797 c -69.97,12.98 -81.52,54.332 -81.52,121.125 0,43.012 -10.2,67.922 -19.25,84.898 15.85,-2.269 28.29,-14.711 40.75,-32.82 l 2.26,16.992 c 2.29,18.09 5.67,35.086 5.67,53.188 0,20.383 -4.52,37.375 -19.24,52.097 20.35,-3.406 39.61,-16.996 48.67,-48.691 h 2.28 l 5.65,23.762 c 3.41,12.476 7.93,27.187 7.93,39.625 0,18.117 -4.52,46.422 -13.58,63.418 16.98,-7.934 31.69,-24.907 40.75,-39.633 5.63,9.058 9.06,30.566 9.06,41.875 0,12.465 -3.43,27.176 -3.43,35.113 0,27.152 22.87,36.895 22.87,50.098 0,-46.973 21.69,-86.672 34.89,-104.449 11.67,-15.704 17.44,-59.547 17.44,-59.547 l 1.29,-13.035 0.52,10.32 v 5.652 c 1.1,9.055 2.88,20.211 2.88,24.723 0,13.59 -7.41,33.023 -11.94,40.949 21.52,-5.656 43.01,-39.625 48.69,-58.863 6.77,-21.52 10.19,-44.18 10.19,-64.551 V 663.5 h 2.27 c 3.36,6.777 16.96,32.813 16.96,49.813 0,5.636 -3.39,14.714 -6.78,19.242 24.9,-14.727 33.94,-53.219 33.94,-78.117 0,-7.922 -1.15,-16.981 -2.25,-24.922 l -3.4,-33.953 c 4.5,3.402 10.19,14.73 12.45,23.785 4.53,-9.055 7.94,-27.176 7.94,-41.903 0,-66.785 -44.14,-126.781 -115.48,-126.781 -14.72,0 -29.46,3.399 -41.88,9.059 33.96,11.332 73.58,58.855 76.99,93.961 l -28.32,-27.196 9.05,22.676 c 4.52,9.043 7.92,26.027 7.92,33.949 0,5.66 -1.1,16.969 -2.26,20.367 h -2.25 c 0,-16.988 -10.2,-28.289 -20.39,-40.73 l -13.58,-19.258 c -1.12,1.153 -2.29,5.672 -2.29,9.059 0,15.828 11.35,30.562 11.35,47.531 0,10.211 -3.4,20.387 -10.18,36.231 l -10.2,27.187 h 1.14 -2.27 v -41.883 c 0,-20.383 -2.29,-29.445 -5.66,-39.633 l -12.45,-28.3 c -1.14,7.929 -3.4,15.851 -9.07,21.507 -5.65,6.793 -12.46,26.043 -14.7,36.219 h -2.28 c -1.15,-7.93 -5.66,-30.566 -5.66,-46.406 0,-19.25 7.94,-39.629 18.11,-55.481 -33.96,5.665 -44.14,47.528 -49.8,75.844 h -2.26 c -1.14,-6.793 -7.92,-33.957 -7.92,-49.82 0,-33.945 26.02,-69.031 58.86,-79.238 0,0 -5.06,-1.954 -8.19,-3.145 -4.01,-1.484 -7.84,-1.965 -11.96,-2.539 -3.1,-0.437 -3.72,-0.195 -6.26,-0.195 -2.53,0 -8.98,0.769 -12.07,1.367"/><path style="fill:#5a5758;fill-opacity:1;fill-rule:nonzero;stroke:none" id="path11249" d="m 932.668,89.5117 -0.063,69.7183 34.575,0.02 c 0.41,-12.812 3.738,-22.258 10.008,-28.332 6.257,-6.043 13.417,-9.082 21.433,-9.082 6.239,0.019 11.549,2.219 15.839,6.594 4.3,4.363 6.45,9.492 6.47,15.39 -0.03,6.297 -2.12,11.571 -6.3,15.836 -4.21,4.27 -11.88,9.121 -23.021,14.555 -23.613,11.348 -39.617,21.394 -48.086,30.137 -8.433,8.726 -12.671,20.535 -12.683,35.371 -0.02,17.91 5.555,31.765 16.711,41.621 11.16,9.82 23.836,14.765 38.047,14.785 16.252,0 28.852,-6.34 37.772,-19.023 l -0.03,17.05 34.59,0.028 0.03,-62.285 -34.55,-0.032 c -1.1,9.653 -4.4,17.102 -9.91,22.375 -5.55,5.254 -11.97,7.879 -19.301,7.879 -5.676,0 -10.469,-1.531 -14.375,-4.578 -3.918,-3.035 -5.871,-7.031 -5.847,-11.934 -0.012,-4.218 1.597,-8.23 4.812,-12.019 3.215,-3.77 12.637,-9.133 28.241,-16.074 15.02,-6.731 26.58,-12.832 34.7,-18.274 8.08,-5.437 14.51,-12.488 19.22,-21.179 4.73,-8.672 7.09,-18.704 7.09,-30.079 0.02,-20.214 -5.85,-35.429 -17.6,-45.636 -11.75,-10.2268 -25.66,-15.3323 -41.74,-15.3518 -17.93,-0.0078 -31.759,6.6328 -41.473,19.8828 l 0.007,-17.3437 -34.566,-0.0196"/><path style="fill:#5a5758;fill-opacity:1;fill-rule:nonzero;stroke:none" id="path11251" d="m 1162.07,197.98 h 7.96 c 18.26,0.02 30.02,3.008 35.28,8.954 5.26,5.937 7.87,13.32 7.87,22.168 -0.01,7.461 -1.84,13.82 -5.47,19.074 -3.64,5.23 -7.82,8.476 -12.53,9.707 -4.72,1.23 -12.45,1.836 -23.14,1.812 h -10.03 z m 28.63,-73.683 0.03,-34.5782 -107.72,-0.0782 -0.01,34.5704 25.98,0.019 -0.1,135.418 -26,-0.007 -0.03,34.55 107.85,0.094 c 25.11,0.024 44.51,-5.84 58.19,-17.594 13.7,-11.757 20.54,-27.57 20.57,-47.48 0.01,-11.379 -2.4,-21.684 -7.2,-30.957 -4.79,-9.27 -10.96,-16.367 -18.46,-21.328 -7.53,-4.961 -16.11,-8.36 -25.79,-10.168 -9.67,-1.817 -21.78,-2.742 -36.31,-2.754 l -19.62,-0.012 0.04,-39.722 28.58,0.027"/><path style="fill:#5a5758;fill-opacity:1;fill-rule:nonzero;stroke:none" id="path11253" d="m 1366.63,189.59 -17.09,61.594 -18.35,-61.614 z m 92.48,-65.059 0.04,-34.5701 -100.58,-0.0859 -0.02,34.578 26.24,0.031 -9.71,35.125 -53.15,-0.046 -10.84,-35.161 27.45,0.032 0.03,-34.5707 -90.85,-0.0781 -0.01,34.5698 25.42,0.032 39.77,135.437 -27.31,-0.019 -0.04,34.57 133.7,0.109 0.04,-34.562 -27.54,-0.027 43.07,-135.372 24.29,0.008"/><path style="fill:#5a5758;fill-opacity:1;fill-rule:nonzero;stroke:none" id="path11255" d="m 1554.26,212.336 h 18.3 c 22.66,0.019 33.96,8.047 33.95,24.109 0,7.918 -2.58,13.836 -7.78,17.754 -5.15,3.906 -12.27,5.86 -21.33,5.86 l -23.17,-0.032 z m 132.35,-87.609 0.02,-34.5707 -62.41,-0.0586 -46.3,89.6793 -23.65,-0.019 0.06,-55.141 25.72,0.024 0.02,-34.5824 -106.86,-0.0781 -0.03,34.5625 28,0.02 -0.11,135.425 -27.99,-0.015 -0.04,34.558 123.5,0.11 c 23.24,0.007 39.99,-5.821 50.26,-17.524 10.28,-11.676 15.41,-24.922 15.43,-39.715 0.02,-23.191 -11.82,-40.156 -35.47,-50.832 l 33.27,-61.851 26.58,0.008"/><path style="fill:#5a5758;fill-opacity:1;fill-rule:nonzero;stroke:none" id="path11257" d="m 1820.67,90.2656 -0.04,34.5784 23.8,0.019 -62.15,72.649 66.96,62.769 -24.45,-0.027 -0.01,34.582 99.69,0.074 0.04,-34.558 -24.97,-0.032 -57.86,-56.668 67.38,-78.742 21.27,0.012 0.04,-34.5509 z m -120.56,-0.0898 -0.04,34.5622 27.41,0.02 -0.09,135.418 -27.43,-0.028 -0.05,34.571 106.28,0.097 0.03,-34.574 -25.68,-0.015 0.1,-135.411 23.71,0.02 0.02,-34.5704 -104.26,-0.0898"/><path style="fill:#5a5758;fill-opacity:1;fill-rule:nonzero;stroke:none" id="path11259" d="m 38.6953,178.152 c 0,-18.765 5.461,-34.097 16.3789,-45.972 10.918,-11.875 24.8711,-17.817 41.8555,-17.817 16.6013,0 30.9063,5.969 42.9143,17.914 12.004,11.942 18.004,27.293 18.004,46.075 0,19.023 -6,34.316 -18.004,45.878 -12.008,11.551 -25.93,17.333 -41.762,17.333 -15.8398,0 -29.6914,-5.711 -41.5742,-17.149 C 44.6328,212.988 38.6953,197.57 38.6953,178.152 Z M 227.004,272.793 V 240.41 H 193.672 V 102.297 c 0,-18.6447 -0.957,-32.4728 -2.875,-41.4767 C 188.883,51.8164 184.254,42.6289 176.91,33.2344 169.566,23.8477 158.551,15.9688 143.863,9.57813 129.176,3.19531 112.766,0 94.6328,0 67.3008,0 42.9102,8.23438 21.457,24.707 L 45.2109,51.1523 C 61.2969,38.6328 78.793,32.375 97.6953,32.375 c 10.4727,0 20.1797,2.0117 29.1207,6.0313 8.938,4.0273 15.61,8.9101 20.02,14.6601 4.402,5.7422 7.246,11.2031 8.519,16.3789 1.282,5.1719 1.918,13.8828 1.918,26.1524 v 16.8513 c -5.746,-7.281 -14.75,-14.1756 -27.007,-20.6912 -12.262,-6.5156 -25.672,-9.7656 -40.2308,-9.7656 -26.5625,0 -48.2149,9.1914 -64.9414,27.5778 C 8.36328,127.969 0,150.566 0,177.395 c 0,29.363 9.22266,53.085 27.6797,71.16 18.4531,18.078 39.8164,27.109 64.0781,27.109 24.5192,0 46.3552,-9.773 65.5152,-29.305 v 26.434 h 69.731"/><path style="fill:#5a5758;fill-opacity:1;fill-rule:nonzero;stroke:none" id="path11261" d="m 397.965,197.316 c -2.559,13.028 -9.328,24.801 -20.309,35.34 -10.984,10.539 -24.457,15.801 -40.422,15.801 -14.558,0 -27.007,-4.758 -37.351,-14.266 -10.348,-9.511 -16.668,-21.808 -18.965,-36.875 z m 37.543,-26.437 H 279.574 c 2.301,-17.117 9.071,-30.977 20.309,-41.57 11.234,-10.61 25.601,-15.903 43.101,-15.903 25.414,0 45.528,10.219 60.34,30.649 l 32.184,-14.172 C 425.039,113.66 411.438,101.621 394.707,93.7695 377.973,85.918 360.48,81.9922 342.219,81.9922 c -28.352,0 -52.586,8.8359 -72.703,26.5348 -20.114,17.684 -30.168,41.532 -30.168,71.543 0,28.477 9.797,51.914 29.402,70.301 19.605,18.399 42.113,27.59 67.527,27.59 24.907,0 47.477,-8.977 67.723,-26.914 20.238,-17.942 30.746,-44.668 31.508,-80.168"/><path style="fill:#5a5758;fill-opacity:1;fill-rule:nonzero;stroke:none" id="path11263" d="m 620.273,197.316 c -2.558,13.028 -9.328,24.801 -20.308,35.34 -10.985,10.539 -24.457,15.801 -40.418,15.801 -14.563,0 -27.012,-4.758 -37.356,-14.266 -10.343,-9.511 -16.668,-21.808 -18.964,-36.875 z m 37.543,-26.437 H 501.887 c 2.297,-17.117 9.066,-30.977 20.304,-41.57 11.239,-10.61 25.602,-15.903 43.102,-15.903 25.414,0 45.527,10.219 60.344,30.649 l 32.179,-14.172 c -10.468,-16.223 -24.07,-28.262 -40.8,-36.1135 -16.735,-7.8515 -34.227,-11.7773 -52.489,-11.7773 -28.351,0 -52.586,8.8359 -72.703,26.5348 -20.109,17.684 -30.168,41.532 -30.168,71.543 0,28.477 9.797,51.914 29.403,70.301 19.605,18.399 42.117,27.59 67.531,27.59 24.902,0 47.473,-8.977 67.719,-26.914 20.238,-17.942 30.746,-44.668 31.507,-80.168"/><path style="fill:#5a5758;fill-opacity:1;fill-rule:nonzero;stroke:none" id="path11265" d="m 713.953,119.727 v 201.718 h -33.328 v 32.375 h 69.727 V 187.355 l 69.351,55.36 h -30.848 v 30.078 h 102.493 v -30.078 h -28.356 l -69.535,-57.852 65.32,-65.136 h 32.571 V 87.3555 h -47.7 l -93.296,93.2895 v -60.918 h 31.992 V 87.3555 H 680.625 v 32.3715 h 33.328"/></g><g id="g11567" transform="matrix(0.07143438,0,0,-0.07143438,272.74786,-181.04807)"><path id="path11269" d="m 2164.74,104.23 h 97.97 v 38.438 h -97.97 V 104.23" style="fill:#f68712;fill-opacity:1;fill-rule:nonzero;stroke:none"/><path id="path11271" d="m 1968.04,24.3242 h 58.98 v 19.6016 h -58.98 V 24.3242" style="fill:#f68712;fill-opacity:1;fill-rule:nonzero;stroke:none"/><path id="path11273" d="m 2006.81,103.477 h 39.23 v 19.503 h -39.23 v -19.503" style="fill:#f68712;fill-opacity:1;fill-rule:nonzero;stroke:none"/><path id="path11275" d="m 2006.81,43.9258 h 20.03 V 122.98 h -20.03 V 43.9258" style="fill:#f68712;fill-opacity:1;fill-rule:nonzero;stroke:none"/><path id="path11277" d="m 2006.95,64.2773 h 39.24 v 39.1017 h -39.24 V 64.2773" style="fill:#f68712;fill-opacity:1;fill-rule:nonzero;stroke:none"/><path id="path11279" d="m 1987.7,142.512 h 39.18 v 19.707 h -39.18 v -19.707" style="fill:#f68712;fill-opacity:1;fill-rule:nonzero;stroke:none"/><path id="path11281" d="m 1987.7,122.629 h 39.18 v 19.695 h -39.18 v -19.695" style="fill:#f68712;fill-opacity:1;fill-rule:nonzero;stroke:none"/><path id="path11283" d="m 2188.85,553.684 -28.32,-27.196 9.05,22.676 c 4.52,9.043 7.92,26.027 7.92,33.949 0,5.66 -1.1,16.969 -2.26,20.367 h -2.25 c 0,-16.988 -10.2,-28.289 -20.39,-40.73 l -13.58,-19.258 c -1.12,1.153 -2.29,5.672 -2.29,9.059 0,15.828 11.35,30.562 11.35,47.531 0,10.211 -3.4,20.387 -10.18,36.231 l -10.2,27.187 h -1.13 v -41.883 c 0,-20.383 -2.29,-29.445 -5.66,-39.633 l -12.45,-28.3 c -1.14,7.929 -3.4,15.851 -9.07,21.507 -5.65,6.793 -12.46,26.043 -14.7,36.219 h -2.28 c -1.15,-7.93 -5.66,-30.566 -5.66,-46.406 0,-19.25 7.94,-39.629 18.11,-55.481 -33.96,5.665 -44.14,47.528 -49.8,75.844 h -2.26 c -1.14,-6.793 -7.92,-33.957 -7.92,-49.82 0,-30.52 19.33,-66.664 47.43,-80.117 l 51.88,-0.379 c 33.68,12.039 51.28,63.941 54.66,98.633" style="fill:#f68712;fill-opacity:1;fill-rule:nonzero;stroke:none"/><path id="path11285" d="m 2125.54,201.359 h 19.6 v 19.598 h -19.6 v -19.598" style="fill:#f68712;fill-opacity:1;fill-rule:nonzero;stroke:none"/><path id="path11287" d="m 2145.14,201.359 h 19.6 v 19.598 h -19.6 v -19.598" style="fill:#f68712;fill-opacity:1;fill-rule:nonzero;stroke:none"/><path id="path11289" d="m 2086.34,436.406 h 19.6 v 19.59 h -19.6 v -19.59" style="fill:#f68712;fill-opacity:1;fill-rule:nonzero;stroke:none"/><path id="path11291" d="m 2105.94,436.406 h 19.59 v 19.59 h -19.59 v -19.59" style="fill:#f68712;fill-opacity:1;fill-rule:nonzero;stroke:none"/><path id="path11293" d="m 2086.34,416.816 h 19.6 v 19.59 h -19.6 v -19.59" style="fill:#f68712;fill-opacity:1;fill-rule:nonzero;stroke:none"/><path id="path11295" d="m 2105.94,416.816 h 19.59 v 19.59 h -19.59 v -19.59" style="fill:#f68712;fill-opacity:1;fill-rule:nonzero;stroke:none"/><path id="path11297" d="m 2086.34,397.219 h 19.6 v 19.597 h -19.6 v -19.597" style="fill:#f68712;fill-opacity:1;fill-rule:nonzero;stroke:none"/><path id="path11299" d="m 2105.94,397.219 h 19.59 v 19.597 h -19.59 v -19.597" style="fill:#f68712;fill-opacity:1;fill-rule:nonzero;stroke:none"/><path id="path11301" d="m 2047.15,416.816 h 19.6 v 19.59 h -19.6 v -19.59" style="fill:#f68712;fill-opacity:1;fill-rule:nonzero;stroke:none"/><path id="path11303" d="m 2066.75,416.816 h 19.59 v 19.59 h -19.59 v -19.59" style="fill:#f68712;fill-opacity:1;fill-rule:nonzero;stroke:none"/><path id="path11305" d="m 2047.15,397.219 h 19.6 v 19.597 h -19.6 v -19.597" style="fill:#f68712;fill-opacity:1;fill-rule:nonzero;stroke:none"/><path id="path11307" d="m 2066.75,397.219 h 19.59 v 19.597 h -19.59 v -19.597" style="fill:#f68712;fill-opacity:1;fill-rule:nonzero;stroke:none"/><path id="path11309" d="m 2008.34,416.816 h 19.6 v 19.59 h -19.6 v -19.59" style="fill:#f68712;fill-opacity:1;fill-rule:nonzero;stroke:none"/><path id="path11311" d="m 2027.94,416.816 h 19.6 v 19.59 h -19.6 v -19.59" style="fill:#f68712;fill-opacity:1;fill-rule:nonzero;stroke:none"/><path id="path11313" d="m 2008.34,397.219 h 19.6 v 19.597 h -19.6 v -19.597" style="fill:#f68712;fill-opacity:1;fill-rule:nonzero;stroke:none"/><path id="path11315" d="m 2027.94,397.219 h 19.6 v 19.597 h -19.6 v -19.597" style="fill:#f68712;fill-opacity:1;fill-rule:nonzero;stroke:none"/><path id="path11317" d="m 1969.53,397.219 h 19.59 v 19.597 h -19.59 v -19.597" style="fill:#f68712;fill-opacity:1;fill-rule:nonzero;stroke:none"/><path id="path11319" d="m 1989.12,397.219 h 19.6 v 19.597 h -19.6 v -19.597" style="fill:#f68712;fill-opacity:1;fill-rule:nonzero;stroke:none"/><path id="path11321" d="m 1969.53,377.617 h 19.59 v 19.602 h -19.59 v -19.602" style="fill:#f68712;fill-opacity:1;fill-rule:nonzero;stroke:none"/><path id="path11323" d="m 1989.12,377.617 h 19.6 v 19.602 h -19.6 v -19.602" style="fill:#f68712;fill-opacity:1;fill-rule:nonzero;stroke:none"/><path id="path11325" d="m 1930.34,377.617 h 19.59 v 19.602 h -19.59 v -19.602" style="fill:#f68712;fill-opacity:1;fill-rule:nonzero;stroke:none"/><path id="path11327" d="m 1949.93,377.617 h 19.6 v 19.602 h -19.6 v -19.602" style="fill:#f68712;fill-opacity:1;fill-rule:nonzero;stroke:none"/><path id="path11329" d="m 1930.34,357.871 h 19.59 v 19.609 h -19.59 v -19.609" style="fill:#f68712;fill-opacity:1;fill-rule:nonzero;stroke:none"/><path id="path11331" d="m 1949.93,357.871 h 19.6 v 19.609 h -19.6 v -19.609" style="fill:#f68712;fill-opacity:1;fill-rule:nonzero;stroke:none"/><path id="path11333" d="m 1891.14,397.219 h 19.6 v 19.597 h -19.6 v -19.597" style="fill:#f68712;fill-opacity:1;fill-rule:nonzero;stroke:none"/><path id="path11335" d="m 1910.74,397.219 h 19.6 v 19.597 h -19.6 v -19.597" style="fill:#f68712;fill-opacity:1;fill-rule:nonzero;stroke:none"/><path id="path11337" d="m 1891.14,377.48 h 19.6 v 19.59 h -19.6 v -19.59" style="fill:#f68712;fill-opacity:1;fill-rule:nonzero;stroke:none"/><path id="path11339" d="m 1910.74,377.48 h 19.6 v 19.59 h -19.6 v -19.59" style="fill:#f68712;fill-opacity:1;fill-rule:nonzero;stroke:none"/><path id="path11341" d="m 1851.95,397.219 h 19.6 v 19.597 h -19.6 v -19.597" style="fill:#f68712;fill-opacity:1;fill-rule:nonzero;stroke:none"/><path id="path11343" d="m 1871.55,397.219 h 19.59 v 19.597 h -19.59 v -19.597" style="fill:#f68712;fill-opacity:1;fill-rule:nonzero;stroke:none"/><path id="path11345" d="m 1812.76,416.816 h 19.6 v 19.59 h -19.6 v -19.59" style="fill:#f68712;fill-opacity:1;fill-rule:nonzero;stroke:none"/><path id="path11347" d="m 1832.36,416.816 h 19.59 v 19.59 h -19.59 v -19.59" style="fill:#f68712;fill-opacity:1;fill-rule:nonzero;stroke:none"/><path id="path11349" d="m 1851.95,377.48 h 19.6 v 19.59 h -19.6 v -19.59" style="fill:#f68712;fill-opacity:1;fill-rule:nonzero;stroke:none"/><path id="path11351" d="m 1871.55,377.48 h 19.59 v 19.59 h -19.59 v -19.59" style="fill:#f68712;fill-opacity:1;fill-rule:nonzero;stroke:none"/><path id="path11353" d="m 2164.35,416.816 h 19.6 v 19.59 h -19.6 v -19.59" style="fill:#f68712;fill-opacity:1;fill-rule:nonzero;stroke:none"/><path id="path11355" d="m 2183.95,416.816 h 19.59 v 19.59 h -19.59 v -19.59" style="fill:#f68712;fill-opacity:1;fill-rule:nonzero;stroke:none"/><path id="path11357" d="m 2164.35,397.219 h 19.6 v 19.597 h -19.6 v -19.597" style="fill:#f68712;fill-opacity:1;fill-rule:nonzero;stroke:none"/><path id="path11359" d="m 2183.95,397.219 h 19.59 v 19.597 h -19.59 v -19.597" style="fill:#f68712;fill-opacity:1;fill-rule:nonzero;stroke:none"/><path id="path11361" d="m 2203.49,416.816 h 19.59 v 19.59 h -19.59 v -19.59" style="fill:#f68712;fill-opacity:1;fill-rule:nonzero;stroke:none"/><path id="path11363" d="m 2223.08,416.816 h 19.6 v 19.59 h -19.6 v -19.59" style="fill:#f68712;fill-opacity:1;fill-rule:nonzero;stroke:none"/><path id="path11365" d="m 2203.49,397.219 h 19.59 v 19.597 h -19.59 v -19.597" style="fill:#f68712;fill-opacity:1;fill-rule:nonzero;stroke:none"/><path id="path11367" d="m 2223.08,397.219 h 19.6 v 19.597 h -19.6 v -19.597" style="fill:#f68712;fill-opacity:1;fill-rule:nonzero;stroke:none"/><path id="path11369" d="m 2242.76,397.168 h 19.6 v 19.602 h -19.6 v -19.602" style="fill:#f68712;fill-opacity:1;fill-rule:nonzero;stroke:none"/><path id="path11371" d="m 2262.36,397.168 h 19.6 v 19.602 h -19.6 v -19.602" style="fill:#f68712;fill-opacity:1;fill-rule:nonzero;stroke:none"/><path id="path11373" d="m 2242.76,377.578 h 19.6 v 19.59 h -19.6 v -19.59" style="fill:#f68712;fill-opacity:1;fill-rule:nonzero;stroke:none"/><path id="path11375" d="m 2262.36,377.578 h 19.6 v 19.59 h -19.6 v -19.59" style="fill:#f68712;fill-opacity:1;fill-rule:nonzero;stroke:none"/><path id="path11377" d="m 2282.1,377.578 h 19.6 v 19.59 h -19.6 v -19.59" style="fill:#f68712;fill-opacity:1;fill-rule:nonzero;stroke:none"/><path id="path11379" d="m 2301.7,377.578 h 19.59 v 19.59 h -19.59 v -19.59" style="fill:#f68712;fill-opacity:1;fill-rule:nonzero;stroke:none"/><path id="path11381" d="m 2282.1,357.988 h 19.6 v 19.59 h -19.6 v -19.59" style="fill:#f68712;fill-opacity:1;fill-rule:nonzero;stroke:none"/><path id="path11383" d="m 2301.7,357.988 h 19.59 v 19.59 h -19.59 v -19.59" style="fill:#f68712;fill-opacity:1;fill-rule:nonzero;stroke:none"/><path id="path11385" d="m 2282.25,338.391 h 19.59 v 19.597 h -19.59 v -19.597" style="fill:#f68712;fill-opacity:1;fill-rule:nonzero;stroke:none"/><path id="path11387" d="m 2301.84,338.391 h 19.6 v 19.597 h -19.6 v -19.597" style="fill:#f68712;fill-opacity:1;fill-rule:nonzero;stroke:none"/><path id="path11389" d="m 2262.65,318.789 h 19.6 v 19.602 h -19.6 v -19.602" style="fill:#f68712;fill-opacity:1;fill-rule:nonzero;stroke:none"/><path id="path11391" d="m 2262.65,299.191 h 19.6 v 19.598 h -19.6 v -19.598" style="fill:#f68712;fill-opacity:1;fill-rule:nonzero;stroke:none"/><path id="path11393" d="m 2243.05,299.191 h 19.6 v 19.598 h -19.6 v -19.598" style="fill:#f68712;fill-opacity:1;fill-rule:nonzero;stroke:none"/><path id="path11395" d="m 2223.31,279.738 h 19.6 v 19.598 h -19.6 v -19.598" style="fill:#f68712;fill-opacity:1;fill-rule:nonzero;stroke:none"/><path id="path11397" d="m 2282.25,318.789 h 19.59 v 19.602 h -19.59 v -19.602" style="fill:#f68712;fill-opacity:1;fill-rule:nonzero;stroke:none"/><path id="path11399" d="m 2125.54,416.816 h 19.6 v 19.59 h -19.6 v -19.59" style="fill:#f68712;fill-opacity:1;fill-rule:nonzero;stroke:none"/><path id="path11401" d="m 2145.14,416.816 h 19.6 v 19.59 h -19.6 v -19.59" style="fill:#f68712;fill-opacity:1;fill-rule:nonzero;stroke:none"/><path id="path11403" d="m 2125.54,397.219 h 19.6 v 19.597 h -19.6 v -19.597" style="fill:#f68712;fill-opacity:1;fill-rule:nonzero;stroke:none"/><path id="path11405" d="m 2145.14,397.219 h 19.6 v 19.597 h -19.6 v -19.597" style="fill:#f68712;fill-opacity:1;fill-rule:nonzero;stroke:none"/><path id="path11407" d="m 2086.34,377.617 h 19.6 v 19.602 h -19.6 v -19.602" style="fill:#f68712;fill-opacity:1;fill-rule:nonzero;stroke:none"/><path id="path11409" d="m 2105.94,377.617 h 19.59 v 19.602 h -19.59 v -19.602" style="fill:#f68712;fill-opacity:1;fill-rule:nonzero;stroke:none"/><path id="path11411" d="m 2086.34,358.027 h 19.6 v 19.59 h -19.6 v -19.59" style="fill:#f68712;fill-opacity:1;fill-rule:nonzero;stroke:none"/><path id="path11413" d="m 2105.94,358.027 h 19.59 v 19.59 h -19.59 v -19.59" style="fill:#f68712;fill-opacity:1;fill-rule:nonzero;stroke:none"/><path id="path11415" d="m 2047.15,377.617 h 19.6 v 19.602 h -19.6 v -19.602" style="fill:#f68712;fill-opacity:1;fill-rule:nonzero;stroke:none"/><path id="path11417" d="m 2066.75,377.617 h 19.59 v 19.602 h -19.59 v -19.602" style="fill:#f68712;fill-opacity:1;fill-rule:nonzero;stroke:none"/><path id="path11419" d="m 2047.15,358.027 h 19.6 v 19.59 h -19.6 v -19.59" style="fill:#f68712;fill-opacity:1;fill-rule:nonzero;stroke:none"/><path id="path11421" d="m 2066.75,358.027 h 19.59 v 19.59 h -19.59 v -19.59" style="fill:#f68712;fill-opacity:1;fill-rule:nonzero;stroke:none"/><path id="path11423" d="m 2125.54,377.617 h 19.6 v 19.602 h -19.6 v -19.602" style="fill:#f68712;fill-opacity:1;fill-rule:nonzero;stroke:none"/><path id="path11425" d="m 2145.14,377.617 h 19.6 v 19.602 h -19.6 v -19.602" style="fill:#f68712;fill-opacity:1;fill-rule:nonzero;stroke:none"/><path id="path11427" d="m 2125.54,358.027 h 19.6 v 19.59 h -19.6 v -19.59" style="fill:#f68712;fill-opacity:1;fill-rule:nonzero;stroke:none"/><path id="path11429" d="m 2145.14,358.027 h 19.6 v 19.59 h -19.6 v -19.59" style="fill:#f68712;fill-opacity:1;fill-rule:nonzero;stroke:none"/><path id="path11431" d="m 2086.34,338.43 h 19.6 v 19.597 h -19.6 V 338.43" style="fill:#f68712;fill-opacity:1;fill-rule:nonzero;stroke:none"/><path id="path11433" d="m 2105.94,338.43 h 19.59 v 19.597 h -19.59 V 338.43" style="fill:#f68712;fill-opacity:1;fill-rule:nonzero;stroke:none"/><path id="path11435" d="m 2086.34,318.828 h 19.6 v 19.602 h -19.6 v -19.602" style="fill:#f68712;fill-opacity:1;fill-rule:nonzero;stroke:none"/><path id="path11437" d="m 2105.94,318.828 h 19.59 v 19.602 h -19.59 v -19.602" style="fill:#f68712;fill-opacity:1;fill-rule:nonzero;stroke:none"/><path id="path11439" d="m 2047.15,338.43 h 19.6 v 19.597 h -19.6 V 338.43" style="fill:#f68712;fill-opacity:1;fill-rule:nonzero;stroke:none"/><path id="path11441" d="m 2066.75,338.43 h 19.59 v 19.597 h -19.59 V 338.43" style="fill:#f68712;fill-opacity:1;fill-rule:nonzero;stroke:none"/><path id="path11443" d="m 2047.15,318.828 h 19.6 v 19.602 h -19.6 v -19.602" style="fill:#f68712;fill-opacity:1;fill-rule:nonzero;stroke:none"/><path id="path11445" d="m 2066.75,318.828 h 19.59 v 19.602 h -19.59 v -19.602" style="fill:#f68712;fill-opacity:1;fill-rule:nonzero;stroke:none"/><path id="path11447" d="m 2125.54,338.43 h 19.6 v 19.597 h -19.6 V 338.43" style="fill:#f68712;fill-opacity:1;fill-rule:nonzero;stroke:none"/><path id="path11449" d="m 2145.14,338.43 h 19.6 v 19.597 h -19.6 V 338.43" style="fill:#f68712;fill-opacity:1;fill-rule:nonzero;stroke:none"/><path id="path11451" d="m 2125.54,318.828 h 19.6 v 19.602 h -19.6 v -19.602" style="fill:#f68712;fill-opacity:1;fill-rule:nonzero;stroke:none"/><path id="path11453" d="m 2145.14,318.828 h 19.6 v 19.602 h -19.6 v -19.602" style="fill:#f68712;fill-opacity:1;fill-rule:nonzero;stroke:none"/><path id="path11455" d="m 2086.34,299.23 h 19.6 v 19.598 h -19.6 V 299.23" style="fill:#f68712;fill-opacity:1;fill-rule:nonzero;stroke:none"/><path id="path11457" d="m 2105.94,299.23 h 19.59 v 19.598 h -19.59 V 299.23" style="fill:#f68712;fill-opacity:1;fill-rule:nonzero;stroke:none"/><path id="path11459" d="m 2086.34,279.641 h 19.6 v 19.589 h -19.6 v -19.589" style="fill:#f68712;fill-opacity:1;fill-rule:nonzero;stroke:none"/><path id="path11461" d="m 2105.94,279.641 h 19.59 v 19.589 h -19.59 v -19.589" style="fill:#f68712;fill-opacity:1;fill-rule:nonzero;stroke:none"/><path id="path11463" d="m 2047.15,299.23 h 19.6 v 19.598 h -19.6 V 299.23" style="fill:#f68712;fill-opacity:1;fill-rule:nonzero;stroke:none"/><path id="path11465" d="m 2066.75,299.23 h 19.59 v 19.598 h -19.59 V 299.23" style="fill:#f68712;fill-opacity:1;fill-rule:nonzero;stroke:none"/><path id="path11467" d="m 2047.15,279.641 h 19.6 v 19.589 h -19.6 v -19.589" style="fill:#f68712;fill-opacity:1;fill-rule:nonzero;stroke:none"/><path id="path11469" d="m 2066.75,279.641 h 19.59 v 19.589 h -19.59 v -19.589" style="fill:#f68712;fill-opacity:1;fill-rule:nonzero;stroke:none"/><path id="path11471" d="m 2125.54,299.23 h 19.6 v 19.598 h -19.6 V 299.23" style="fill:#f68712;fill-opacity:1;fill-rule:nonzero;stroke:none"/><path id="path11473" d="m 2145.14,299.23 h 19.6 v 19.598 h -19.6 V 299.23" style="fill:#f68712;fill-opacity:1;fill-rule:nonzero;stroke:none"/><path id="path11475" d="m 2125.54,279.641 h 19.6 v 19.589 h -19.6 v -19.589" style="fill:#f68712;fill-opacity:1;fill-rule:nonzero;stroke:none"/><path id="path11477" d="m 2145.14,279.641 h 19.6 v 19.589 h -19.6 v -19.589" style="fill:#f68712;fill-opacity:1;fill-rule:nonzero;stroke:none"/><path id="path11479" d="m 2086.34,260.039 h 19.6 v 19.602 h -19.6 v -19.602" style="fill:#f68712;fill-opacity:1;fill-rule:nonzero;stroke:none"/><path id="path11481" d="m 2105.94,260.039 h 19.59 v 19.602 h -19.59 v -19.602" style="fill:#f68712;fill-opacity:1;fill-rule:nonzero;stroke:none"/><path id="path11483" d="m 2086.34,240.449 h 19.6 v 19.59 h -19.6 v -19.59" style="fill:#f68712;fill-opacity:1;fill-rule:nonzero;stroke:none"/><path id="path11485" d="m 2105.94,240.449 h 19.59 v 19.59 h -19.59 v -19.59" style="fill:#f68712;fill-opacity:1;fill-rule:nonzero;stroke:none"/><path id="path11487" d="m 2047.15,260.039 h 19.6 v 19.602 h -19.6 v -19.602" style="fill:#f68712;fill-opacity:1;fill-rule:nonzero;stroke:none"/><path id="path11489" d="m 2066.75,260.039 h 19.59 v 19.602 h -19.59 v -19.602" style="fill:#f68712;fill-opacity:1;fill-rule:nonzero;stroke:none"/><path id="path11491" d="m 2047.15,240.449 h 19.6 v 19.59 h -19.6 v -19.59" style="fill:#f68712;fill-opacity:1;fill-rule:nonzero;stroke:none"/><path id="path11493" d="m 2066.75,240.449 h 19.59 v 19.59 h -19.59 v -19.59" style="fill:#f68712;fill-opacity:1;fill-rule:nonzero;stroke:none"/><path id="path11495" d="m 2125.54,260.039 h 19.6 v 19.602 h -19.6 v -19.602" style="fill:#f68712;fill-opacity:1;fill-rule:nonzero;stroke:none"/><path id="path11497" d="m 2145.14,260.039 h 19.6 v 19.602 h -19.6 v -19.602" style="fill:#f68712;fill-opacity:1;fill-rule:nonzero;stroke:none"/><path id="path11499" d="m 2125.54,240.449 h 19.6 v 19.59 h -19.6 v -19.59" style="fill:#f68712;fill-opacity:1;fill-rule:nonzero;stroke:none"/><path id="path11501" d="m 2145.14,240.449 h 19.6 v 19.59 h -19.6 v -19.59" style="fill:#f68712;fill-opacity:1;fill-rule:nonzero;stroke:none"/><path id="path11503" d="m 2086.34,220.852 h 19.6 v 19.597 h -19.6 v -19.597" style="fill:#f68712;fill-opacity:1;fill-rule:nonzero;stroke:none"/><path id="path11505" d="m 2105.94,220.852 h 19.59 v 19.597 h -19.59 v -19.597" style="fill:#f68712;fill-opacity:1;fill-rule:nonzero;stroke:none"/><path id="path11507" d="m 2047.15,220.852 h 19.6 v 19.597 h -19.6 v -19.597" style="fill:#f68712;fill-opacity:1;fill-rule:nonzero;stroke:none"/><path id="path11509" d="m 2066.75,220.852 h 19.59 v 19.597 h -19.59 v -19.597" style="fill:#f68712;fill-opacity:1;fill-rule:nonzero;stroke:none"/><path id="path11511" d="m 2125.54,220.852 h 19.6 v 19.597 h -19.6 v -19.597" style="fill:#f68712;fill-opacity:1;fill-rule:nonzero;stroke:none"/><path id="path11513" d="m 2145.14,220.852 h 19.6 v 19.597 h -19.6 v -19.597" style="fill:#f68712;fill-opacity:1;fill-rule:nonzero;stroke:none"/><path id="path11515" d="m 2125.54,181.758 h 19.6 v 19.601 h -19.6 v -19.601" style="fill:#f68712;fill-opacity:1;fill-rule:nonzero;stroke:none"/><path id="path11517" d="m 2145.14,181.758 h 19.6 v 19.601 h -19.6 v -19.601" style="fill:#f68712;fill-opacity:1;fill-rule:nonzero;stroke:none"/><path id="path11519" d="m 2026.98,201.359 h 19.59 v 19.598 h -19.59 v -19.598" style="fill:#f68712;fill-opacity:1;fill-rule:nonzero;stroke:none"/><path id="path11521" d="m 2046.57,201.359 h 19.6 v 19.598 h -19.6 v -19.598" style="fill:#f68712;fill-opacity:1;fill-rule:nonzero;stroke:none"/><path id="path11523" d="m 2066.17,201.359 h 19.59 v 19.598 h -19.59 v -19.598" style="fill:#f68712;fill-opacity:1;fill-rule:nonzero;stroke:none"/><path id="path11525" d="m 2026.98,181.758 h 19.59 v 19.601 h -19.59 v -19.601" style="fill:#f68712;fill-opacity:1;fill-rule:nonzero;stroke:none"/><path id="path11527" d="m 2046.57,181.758 h 19.6 v 19.601 h -19.6 v -19.601" style="fill:#f68712;fill-opacity:1;fill-rule:nonzero;stroke:none"/><path id="path11529" d="m 2007.38,181.809 h 19.6 v 19.597 h -19.6 v -19.597" style="fill:#f68712;fill-opacity:1;fill-rule:nonzero;stroke:none"/><path id="path11531" d="m 1987.78,162.219 h 19.6 v 19.59 h -19.6 v -19.59" style="fill:#f68712;fill-opacity:1;fill-rule:nonzero;stroke:none"/><path id="path11533" d="m 2007.38,162.219 h 19.6 v 19.59 h -19.6 v -19.59" style="fill:#f68712;fill-opacity:1;fill-rule:nonzero;stroke:none"/><path id="path11535" d="m 2026.98,162.219 h 19.59 v 19.59 h -19.59 v -19.59" style="fill:#f68712;fill-opacity:1;fill-rule:nonzero;stroke:none"/><path id="path11537" d="m 2125.54,162.168 h 19.6 v 19.59 h -19.6 v -19.59" style="fill:#f68712;fill-opacity:1;fill-rule:nonzero;stroke:none"/><path id="path11539" d="m 2145.14,162.168 h 19.6 v 19.59 h -19.6 v -19.59" style="fill:#f68712;fill-opacity:1;fill-rule:nonzero;stroke:none"/><path id="path11541" d="m 2125.54,142.57 h 19.6 v 19.598 h -19.6 V 142.57" style="fill:#f68712;fill-opacity:1;fill-rule:nonzero;stroke:none"/><path id="path11543" d="m 2145.14,142.57 h 19.6 v 19.598 h -19.6 V 142.57" style="fill:#f68712;fill-opacity:1;fill-rule:nonzero;stroke:none"/><path id="path11545" d="m 2262.71,64.5625 h 19.58 v 58.9845 h -19.58 V 64.5625" style="fill:#f68712;fill-opacity:1;fill-rule:nonzero;stroke:none"/><path id="path11547" d="m 2055.26,451.797 c -69.97,12.98 -81.52,54.332 -81.52,121.125 0,43.012 -10.2,67.922 -19.25,84.898 15.85,-2.269 28.29,-14.711 40.75,-32.82 l 2.26,16.992 c 2.29,18.09 5.67,35.086 5.67,53.188 0,20.383 -4.52,37.375 -19.24,52.097 20.35,-3.406 39.61,-16.996 48.67,-48.691 h 2.28 l 5.65,23.762 c 3.41,12.476 7.93,27.187 7.93,39.625 0,18.117 -4.52,46.422 -13.58,63.418 16.98,-7.934 31.69,-24.907 40.75,-39.633 5.63,9.058 9.06,30.566 9.06,41.875 0,12.465 -3.43,27.176 -3.43,35.113 0,27.152 22.87,36.895 22.87,50.098 0,-46.973 21.69,-86.672 34.89,-104.449 11.67,-15.704 17.44,-59.547 17.44,-59.547 l 1.29,-13.035 0.52,10.32 v 5.652 c 1.1,9.055 2.88,20.211 2.88,24.723 0,13.59 -7.41,33.023 -11.94,40.949 21.52,-5.656 43.01,-39.625 48.69,-58.863 6.77,-21.52 10.19,-44.18 10.19,-64.551 V 663.5 h 2.27 c 3.36,6.777 16.96,32.813 16.96,49.813 0,5.636 -3.39,14.714 -6.78,19.242 24.9,-14.727 33.94,-53.219 33.94,-78.117 0,-7.922 -1.15,-16.981 -2.25,-24.922 l -3.4,-33.953 c 4.5,3.402 10.19,14.73 12.45,23.785 4.53,-9.055 7.94,-27.176 7.94,-41.903 0,-66.785 -44.14,-126.781 -115.48,-126.781 -14.72,0 -29.46,3.399 -41.88,9.059 33.96,11.332 73.58,58.855 76.99,93.961 l -28.32,-27.196 9.05,22.676 c 4.52,9.043 7.92,26.027 7.92,33.949 0,5.66 -1.1,16.969 -2.26,20.367 h -2.25 c 0,-16.988 -10.2,-28.289 -20.39,-40.73 l -13.58,-19.258 c -1.12,1.153 -2.29,5.672 -2.29,9.059 0,15.828 11.35,30.562 11.35,47.531 0,10.211 -3.4,20.387 -10.18,36.231 l -10.2,27.187 h 1.14 -2.27 v -41.883 c 0,-20.383 -2.29,-29.445 -5.66,-39.633 l -12.45,-28.3 c -1.14,7.929 -3.4,15.851 -9.07,21.507 -5.65,6.793 -12.46,26.043 -14.7,36.219 h -2.28 c -1.15,-7.93 -5.66,-30.566 -5.66,-46.406 0,-19.25 7.94,-39.629 18.11,-55.481 -33.96,5.665 -44.14,47.528 -49.8,75.844 h -2.26 c -1.14,-6.793 -7.92,-33.957 -7.92,-49.82 0,-33.945 26.02,-69.031 58.86,-79.238 0,0 -5.06,-1.954 -8.19,-3.145 -4.01,-1.484 -7.84,-1.965 -11.96,-2.539 -3.1,-0.437 -3.72,-0.195 -6.26,-0.195 -2.53,0 -8.98,0.769 -12.07,1.367" style="fill:#5a5758;fill-opacity:1;fill-rule:nonzero;stroke:none"/><path id="path11549" d="m 932.668,89.5117 -0.063,69.7183 34.575,0.02 c 0.41,-12.812 3.738,-22.258 10.008,-28.332 6.257,-6.043 13.417,-9.082 21.433,-9.082 6.239,0.019 11.549,2.219 15.839,6.594 4.3,4.363 6.45,9.492 6.47,15.39 -0.03,6.297 -2.12,11.571 -6.3,15.836 -4.21,4.27 -11.88,9.121 -23.021,14.555 -23.613,11.348 -39.617,21.394 -48.086,30.137 -8.433,8.726 -12.671,20.535 -12.683,35.371 -0.02,17.91 5.555,31.765 16.711,41.621 11.16,9.82 23.836,14.765 38.047,14.785 16.252,0 28.852,-6.34 37.772,-19.023 l -0.03,17.05 34.59,0.028 0.03,-62.285 -34.55,-0.032 c -1.1,9.653 -4.4,17.102 -9.91,22.375 -5.55,5.254 -11.97,7.879 -19.301,7.879 -5.676,0 -10.469,-1.531 -14.375,-4.578 -3.918,-3.035 -5.871,-7.031 -5.847,-11.934 -0.012,-4.218 1.597,-8.23 4.812,-12.019 3.215,-3.77 12.637,-9.133 28.241,-16.074 15.02,-6.731 26.58,-12.832 34.7,-18.274 8.08,-5.437 14.51,-12.488 19.22,-21.179 4.73,-8.672 7.09,-18.704 7.09,-30.079 0.02,-20.214 -5.85,-35.429 -17.6,-45.636 -11.75,-10.2268 -25.66,-15.3323 -41.74,-15.3518 -17.93,-0.0078 -31.759,6.6328 -41.473,19.8828 l 0.007,-17.3437 -34.566,-0.0196" style="fill:#5a5758;fill-opacity:1;fill-rule:nonzero;stroke:none"/><path id="path11551" d="m 1162.07,197.98 h 7.96 c 18.26,0.02 30.02,3.008 35.28,8.954 5.26,5.937 7.87,13.32 7.87,22.168 -0.01,7.461 -1.84,13.82 -5.47,19.074 -3.64,5.23 -7.82,8.476 -12.53,9.707 -4.72,1.23 -12.45,1.836 -23.14,1.812 h -10.03 z m 28.63,-73.683 0.03,-34.5782 -107.72,-0.0782 -0.01,34.5704 25.98,0.019 -0.1,135.418 -26,-0.007 -0.03,34.55 107.85,0.094 c 25.11,0.024 44.51,-5.84 58.19,-17.594 13.7,-11.757 20.54,-27.57 20.57,-47.48 0.01,-11.379 -2.4,-21.684 -7.2,-30.957 -4.79,-9.27 -10.96,-16.367 -18.46,-21.328 -7.53,-4.961 -16.11,-8.36 -25.79,-10.168 -9.67,-1.817 -21.78,-2.742 -36.31,-2.754 l -19.62,-0.012 0.04,-39.722 28.58,0.027" style="fill:#5a5758;fill-opacity:1;fill-rule:nonzero;stroke:none"/><path id="path11553" d="m 1366.63,189.59 -17.09,61.594 -18.35,-61.614 z m 92.48,-65.059 0.04,-34.5701 -100.58,-0.0859 -0.02,34.578 26.24,0.031 -9.71,35.125 -53.15,-0.046 -10.84,-35.161 27.45,0.032 0.03,-34.5707 -90.85,-0.0781 -0.01,34.5698 25.42,0.032 39.77,135.437 -27.31,-0.019 -0.04,34.57 133.7,0.109 0.04,-34.562 -27.54,-0.027 43.07,-135.372 24.29,0.008" style="fill:#5a5758;fill-opacity:1;fill-rule:nonzero;stroke:none"/><path id="path11555" d="m 1554.26,212.336 h 18.3 c 22.66,0.019 33.96,8.047 33.95,24.109 0,7.918 -2.58,13.836 -7.78,17.754 -5.15,3.906 -12.27,5.86 -21.33,5.86 l -23.17,-0.032 z m 132.35,-87.609 0.02,-34.5707 -62.41,-0.0586 -46.3,89.6793 -23.65,-0.019 0.06,-55.141 25.72,0.024 0.02,-34.5824 -106.86,-0.0781 -0.03,34.5625 28,0.02 -0.11,135.425 -27.99,-0.015 -0.04,34.558 123.5,0.11 c 23.24,0.007 39.99,-5.821 50.26,-17.524 10.28,-11.676 15.41,-24.922 15.43,-39.715 0.02,-23.191 -11.82,-40.156 -35.47,-50.832 l 33.27,-61.851 26.58,0.008" style="fill:#5a5758;fill-opacity:1;fill-rule:nonzero;stroke:none"/><path id="path11557" d="m 1820.67,90.2656 -0.04,34.5784 23.8,0.019 -62.15,72.649 66.96,62.769 -24.45,-0.027 -0.01,34.582 99.69,0.074 0.04,-34.558 -24.97,-0.032 -57.86,-56.668 67.38,-78.742 21.27,0.012 0.04,-34.5509 z m -120.56,-0.0898 -0.04,34.5622 27.41,0.02 -0.09,135.418 -27.43,-0.028 -0.05,34.571 106.28,0.097 0.03,-34.574 -25.68,-0.015 0.1,-135.411 23.71,0.02 0.02,-34.5704 -104.26,-0.0898" style="fill:#5a5758;fill-opacity:1;fill-rule:nonzero;stroke:none"/><path id="path11559" d="m 38.6953,178.152 c 0,-18.765 5.461,-34.097 16.3789,-45.972 10.918,-11.875 24.8711,-17.817 41.8555,-17.817 16.6013,0 30.9063,5.969 42.9143,17.914 12.004,11.942 18.004,27.293 18.004,46.075 0,19.023 -6,34.316 -18.004,45.878 -12.008,11.551 -25.93,17.333 -41.762,17.333 -15.8398,0 -29.6914,-5.711 -41.5742,-17.149 C 44.6328,212.988 38.6953,197.57 38.6953,178.152 Z M 227.004,272.793 V 240.41 H 193.672 V 102.297 c 0,-18.6447 -0.957,-32.4728 -2.875,-41.4767 C 188.883,51.8164 184.254,42.6289 176.91,33.2344 169.566,23.8477 158.551,15.9688 143.863,9.57813 129.176,3.19531 112.766,0 94.6328,0 67.3008,0 42.9102,8.23438 21.457,24.707 L 45.2109,51.1523 C 61.2969,38.6328 78.793,32.375 97.6953,32.375 c 10.4727,0 20.1797,2.0117 29.1207,6.0313 8.938,4.0273 15.61,8.9101 20.02,14.6601 4.402,5.7422 7.246,11.2031 8.519,16.3789 1.282,5.1719 1.918,13.8828 1.918,26.1524 v 16.8513 c -5.746,-7.281 -14.75,-14.1756 -27.007,-20.6912 -12.262,-6.5156 -25.672,-9.7656 -40.2308,-9.7656 -26.5625,0 -48.2149,9.1914 -64.9414,27.5778 C 8.36328,127.969 0,150.566 0,177.395 c 0,29.363 9.22266,53.085 27.6797,71.16 18.4531,18.078 39.8164,27.109 64.0781,27.109 24.5192,0 46.3552,-9.773 65.5152,-29.305 v 26.434 h 69.731" style="fill:#5a5758;fill-opacity:1;fill-rule:nonzero;stroke:none"/><path id="path11561" d="m 397.965,197.316 c -2.559,13.028 -9.328,24.801 -20.309,35.34 -10.984,10.539 -24.457,15.801 -40.422,15.801 -14.558,0 -27.007,-4.758 -37.351,-14.266 -10.348,-9.511 -16.668,-21.808 -18.965,-36.875 z m 37.543,-26.437 H 279.574 c 2.301,-17.117 9.071,-30.977 20.309,-41.57 11.234,-10.61 25.601,-15.903 43.101,-15.903 25.414,0 45.528,10.219 60.34,30.649 l 32.184,-14.172 C 425.039,113.66 411.438,101.621 394.707,93.7695 377.973,85.918 360.48,81.9922 342.219,81.9922 c -28.352,0 -52.586,8.8359 -72.703,26.5348 -20.114,17.684 -30.168,41.532 -30.168,71.543 0,28.477 9.797,51.914 29.402,70.301 19.605,18.399 42.113,27.59 67.527,27.59 24.907,0 47.477,-8.977 67.723,-26.914 20.238,-17.942 30.746,-44.668 31.508,-80.168" style="fill:#5a5758;fill-opacity:1;fill-rule:nonzero;stroke:none"/><path id="path11563" d="m 620.273,197.316 c -2.558,13.028 -9.328,24.801 -20.308,35.34 -10.985,10.539 -24.457,15.801 -40.418,15.801 -14.563,0 -27.012,-4.758 -37.356,-14.266 -10.343,-9.511 -16.668,-21.808 -18.964,-36.875 z m 37.543,-26.437 H 501.887 c 2.297,-17.117 9.066,-30.977 20.304,-41.57 11.239,-10.61 25.602,-15.903 43.102,-15.903 25.414,0 45.527,10.219 60.344,30.649 l 32.179,-14.172 c -10.468,-16.223 -24.07,-28.262 -40.8,-36.1135 -16.735,-7.8515 -34.227,-11.7773 -52.489,-11.7773 -28.351,0 -52.586,8.8359 -72.703,26.5348 -20.109,17.684 -30.168,41.532 -30.168,71.543 0,28.477 9.797,51.914 29.403,70.301 19.605,18.399 42.117,27.59 67.531,27.59 24.902,0 47.473,-8.977 67.719,-26.914 20.238,-17.942 30.746,-44.668 31.507,-80.168" style="fill:#5a5758;fill-opacity:1;fill-rule:nonzero;stroke:none"/><path id="path11565" d="m 713.953,119.727 v 201.718 h -33.328 v 32.375 h 69.727 V 187.355 l 69.351,55.36 h -30.848 v 30.078 h 102.493 v -30.078 h -28.356 l -69.535,-57.852 65.32,-65.136 h 32.571 V 87.3555 h -47.7 l -93.296,93.2895 v -60.918 h 31.992 V 87.3555 H 680.625 v 32.3715 h 33.328" style="fill:#5a5758;fill-opacity:1;fill-rule:nonzero;stroke:none"/></g></g></g></svg>