<svg xmlns="http://www.w3.org/2000/svg" xmlns:svg="http://www.w3.org/2000/svg" id="svg8" width="110" height="110" version="1.1" viewBox="0 0 29.104 29.104"><metadata id="metadata5"/><g id="layer1" transform="translate(0,-267.89583)"><path style="fill:none;stroke:#5f5f5f;stroke-width:.565;stroke-linecap:butt;stroke-linejoin:miter;stroke-miterlimit:4;stroke-dasharray:none;stroke-opacity:1" id="path892" d="m 6.6145841,273.18749 -1.322917,1.32291 -1.3229168,-1.32291 -1.3229167,1.32291 -1.3229166,-1.32291 -2e-7,-2.64582 1.3229167,-1.32292 1.3229168,1.32291 1.3229168,-1.32291 1.322917,1.32291"/><path id="path894" d="m 14.552085,273.18749 -1.322917,1.32291 -1.322917,-1.32291 -1.322917,1.32291 -1.3229165,-1.32291 -2e-7,-2.64582 1.3229167,-1.32292 1.322917,1.32291 1.322917,-1.32291 1.322917,1.32291" style="fill:none;stroke:#5f5f5f;stroke-width:.565;stroke-linecap:round;stroke-linejoin:round;stroke-miterlimit:4;stroke-dasharray:none;stroke-opacity:1;opacity:.202"/><path style="fill:none;stroke:#5f5f5f;stroke-width:.4520005;stroke-linecap:round;stroke-linejoin:round;stroke-miterlimit:4;stroke-dasharray:none;stroke-opacity:1;opacity:.199" id="path896" d="m 21.431256,273.45208 -1.058334,1.05833 -1.058335,-1.05833 -1.058335,1.05833 -1.058334,-1.05833 v -3.17499 l 1.058334,-1.05834 1.058335,1.05833 1.058335,-1.05833 1.058334,1.05833"/><path id="path898" d="m 28.045848,273.45208 -1.058336,1.05833 -1.058337,-1.05833 -1.058337,1.05833 -1.058336,-1.05833 v -3.175 l 1.058336,-1.05834 1.058337,1.05833 1.058337,-1.05833 1.058336,1.05833" style="fill:none;stroke:#5f5f5f;stroke-width:.45200136;stroke-linecap:square;stroke-linejoin:miter;stroke-miterlimit:4;stroke-dasharray:none;stroke-opacity:1"/><path id="path900" d="m 6.6145841,281.125 -1.322917,1.32291 -1.3229169,-1.32291 2.6458335,-2.64584 -2.6394568,2.65222 -0.00638,-0.006 -1.3229167,1.32291 -1.3229166,-1.32291 -2e-7,-2.64582 1.3229167,-1.32292 1.3229168,1.32291 1.3229168,-1.32291 1.322917,1.32291" style="fill:none;stroke:#5f5f5f;stroke-width:.565;stroke-linecap:square;stroke-linejoin:miter;stroke-miterlimit:4;stroke-dasharray:none;stroke-opacity:1"/><path id="path904" d="m 14.552084,281.12498 -1.322917,1.32291 -1.322917,-1.32291 -1.322916,1.32291 -1.3229165,-1.32291 -2e-7,-2.64582 1.3229167,-1.32292 1.322917,1.32292 -2.6458338,2.64584 2.6458328,-2.64585 1.322917,-1.32291 1.322917,1.32291" style="fill:none;stroke:#5f5f5f;stroke-width:.565;stroke-linecap:butt;stroke-linejoin:miter;stroke-miterlimit:4;stroke-dasharray:none;stroke-opacity:1;opacity:.199"/></g></svg>