<svg xmlns="http://www.w3.org/2000/svg" xmlns:svg="http://www.w3.org/2000/svg" id="svg1089" width="24.556" height="32.743" version="1.1" viewBox="0 0 6.497 8.663"><metadata id="metadata1086"/><g id="layer1" transform="translate(-12.626447,66.409004)"><path style="opacity:1;fill:#6fa5f2;fill-opacity:1;stroke:#b6b6b6;stroke-width:0;stroke-miterlimit:4;stroke-dasharray:none;stroke-opacity:1" id="path961" d="m -61.288394,-3.375981 a 4.3314023,4.3314023 0 0 1 0.485313,5.5471542 4.3314023,4.3314023 0 0 1 -5.378607,1.4411936 4.3314023,4.3314023 0 0 1 -2.353284,-5.046633 l 4.183814,1.12104925 z" transform="rotate(105)"/><path id="path1693" d="m -62.162419,-2.501956 a 3.0953443,3.0953443 0 0 1 0.346819,3.9641555 3.0953443,3.0953443 0 0 1 -3.843707,1.0299182 3.0953443,3.0953443 0 0 1 -1.681724,-3.6064686 l 2.989873,0.80113395 z" transform="rotate(105)" style="opacity:1;fill:#305d9e;fill-opacity:1;stroke:#b6b6b6;stroke-width:0;stroke-miterlimit:4;stroke-dasharray:none;stroke-opacity:1"/><circle id="circle965" cx="64.329" cy=".232" r="1.872" transform="rotate(-75)" style="opacity:1;fill:#6fa5f2;fill-opacity:1;stroke:#b6b6b6;stroke-width:0;stroke-miterlimit:4;stroke-dasharray:none;stroke-opacity:1"/></g></svg>